<svg width="95" height="12" viewBox="0 0 95 12" fill="none" xmlns="http://www.w3.org/2000/svg">
<path d="M87.9498 5.15002H1.5498V5.95002H87.9498V5.15002Z" fill="white"/>
<path d="M4.25 3.95001C5.25 4.95001 5.25 6.45001 4.25 7.45001C3.25 8.45001 1.75 8.45001 0.75 7.45001C-0.25 6.45001 -0.25 4.95001 0.75 3.95001C1.75 2.95001 3.25 2.95001 4.25 3.95001Z" fill="white"/>
<path d="M92.5504 9.65C90.3504 11.85 86.7504 11.85 84.5504 9.65C82.3504 7.45 82.3504 3.85 84.5504 1.65C86.7504 -0.55 90.3504 -0.55 92.5504 1.65C94.7504 3.85 94.7504 7.45 92.5504 9.65ZM85.0504 2.15C83.1504 4.05 83.1504 7.15 85.0504 9.15C86.9504 11.05 90.0504 11.05 92.0504 9.15C93.9504 7.25 93.9504 4.15 92.0504 2.15C90.1504 0.25 86.9504 0.25 85.0504 2.15Z" fill="white"/>
</svg>
