<svg width="24" height="24" viewBox="0 0 24 24" fill="none" xmlns="http://www.w3.org/2000/svg">
<path d="M8.88355 3.75H6.23572C5.47817 3.75 4.78565 4.178 4.44686 4.85557L2.35596 9.03738L6.52133 9.53722L8.88355 3.75Z" fill="black"/>
<path d="M2.67969 10.587L8.82807 18.1556L6.43961 11.0382L2.67969 10.587Z" fill="black"/>
<path d="M12.9172 20.1597C12.322 20.3496 11.6782 20.3496 11.083 20.1597L8.06885 11.1779C10.6871 11.3404 13.3129 11.3404 15.9311 11.1779L12.9172 20.1597Z" fill="black"/>
<path d="M15.1719 18.1554L21.3201 10.587L17.5602 11.0382L15.1719 18.1554Z" fill="black"/>
<path d="M21.6436 9.03738L19.5527 4.85557C19.2139 4.178 18.5214 3.75 17.7638 3.75H15.1162L17.4782 9.53722L21.6436 9.03738Z" fill="black"/>
<path d="M13.4958 3.75H10.5037L8.08496 9.67587C10.6922 9.84095 13.3072 9.84095 15.9145 9.67586L13.4958 3.75Z" fill="black"/>
</svg>
