<svg width="548" height="235" viewBox="0 0 548 235" fill="none" xmlns="http://www.w3.org/2000/svg">
<path d="M135.78 95.9687C136.115 96.0156 136.35 95.8104 136.621 95.6931C138.82 94.7316 141.083 93.9694 143.452 93.5296C149.178 92.4684 154.669 93.172 159.878 95.7577C165.78 98.6892 170.407 103.034 173.87 108.616C174.875 110.234 175.657 111.964 176.245 113.769C177.338 117.135 177.715 120.571 177.356 124.094C176.95 128.111 175.733 131.875 173.987 135.487C171.947 139.714 169.29 143.543 166.298 147.154C164.505 149.318 162.588 151.382 160.601 153.364C148.361 165.571 136.121 177.778 123.887 189.979C123.622 190.243 123.34 190.495 123.099 190.724C122.829 190.694 122.699 190.548 122.57 190.413C96.3441 164.263 70.124 138.107 43.9157 111.975C44.092 111.483 44.4565 111.248 44.7446 110.955C47.6429 108.053 50.553 105.156 53.4572 102.26C62.1992 93.5414 70.9353 84.8169 79.6832 76.1042C83.0048 72.7974 86.5851 69.8072 90.5357 67.2684C94.1042 64.9759 97.8785 63.1349 101.994 62.0267C104.093 61.4638 106.232 61.1062 108.402 61.0358C113.652 60.8599 118.49 62.2085 122.876 65.0873C127.379 68.0423 130.942 71.8827 133.47 76.6378C136.556 82.4365 137.314 88.5576 135.874 94.9544C135.804 95.3003 135.639 95.6169 135.78 95.9687ZM125.451 165.225C125.851 165.107 126.021 164.844 126.233 164.638C133.711 157.186 141.189 149.74 148.655 142.276C150.942 139.99 153.029 137.533 154.757 134.789C155.833 133.083 156.733 131.289 157.309 129.348C158.567 125.121 157.979 121.18 155.422 117.557C154.093 115.681 152.494 114.068 150.613 112.749C147.027 110.24 143.129 109.571 138.908 110.814C136.474 111.53 134.275 112.714 132.194 114.127C129.925 115.669 127.849 117.451 125.909 119.38C118.402 126.856 110.906 134.337 103.405 141.819C103.199 142.03 102.923 142.194 102.852 142.493C102.852 142.734 103.017 142.845 103.152 142.974C110.595 150.408 118.037 157.831 125.451 165.225ZM91.3235 131.042C91.5586 130.82 91.7585 130.638 91.9467 130.45C98.484 123.936 105.016 117.422 111.547 110.896C112.999 109.448 114.345 107.9 115.562 106.241C116.938 104.371 118.126 102.389 118.949 100.208C119.513 98.7068 119.889 97.1648 119.972 95.5642C120.113 92.7791 119.366 90.2404 117.838 87.9185C116.591 86.0306 115.016 84.4417 113.158 83.1518C109.807 80.8182 106.138 80.2143 102.194 81.2111C99.8832 81.7974 97.7903 82.8586 95.8032 84.1485C93.4987 85.6436 91.4234 87.426 89.4834 89.355C83.0224 95.787 76.5732 102.225 70.124 108.663C69.9124 108.874 69.6478 109.044 69.5714 109.36C70.2063 110.181 90.5122 130.421 91.3235 131.042Z" fill="#7016CD"/>
<path d="M78.2899 210.952C78.3604 210.829 78.3957 210.717 78.4721 210.641C79.8948 209.216 81.3234 207.797 82.752 206.378C82.8284 206.302 82.9401 206.267 83.0636 206.203C83.4575 206.39 83.7044 206.736 83.9924 207.023C87.5492 210.559 91.0883 214.112 94.651 217.642C98.5017 221.453 103.034 224.156 108.225 225.727C112.347 226.976 116.55 227.433 120.848 227.029C128.849 226.272 135.698 223.083 141.371 217.425C166.098 192.782 190.813 168.127 215.534 143.472C216.392 142.616 217.256 141.76 218.115 140.898C223.235 135.75 226.439 129.588 227.415 122.418C228.867 111.729 225.828 102.401 218.373 94.5381C218.138 94.2919 217.891 94.0515 217.65 93.8111C191.936 68.1655 166.221 42.5199 140.513 16.8743C138.649 15.0156 136.65 13.327 134.416 11.9316C130.06 9.21107 125.339 7.51661 120.213 7.04169C109.777 6.07427 100.73 9.19349 93.3106 16.5635C72.7989 36.9323 52.3578 57.3772 31.8874 77.787C26.7785 82.8821 21.6639 87.9772 16.5551 93.0782C12.4692 97.1648 9.62379 101.984 8.07763 107.549C7.06057 111.195 6.66668 114.907 6.94887 118.694C7.56616 126.938 10.8172 133.98 16.6432 139.843C20.1001 143.32 23.5804 146.767 27.049 150.233C27.3371 150.526 27.6898 150.766 27.9014 151.218C27.6134 151.687 27.1489 152.027 26.7609 152.431C26.367 152.842 25.9555 153.24 25.5557 153.639C25.1795 154.014 24.8091 154.395 24.427 154.765C24.0154 155.152 23.6745 155.615 23.2041 155.902C22.8573 155.779 22.6809 155.521 22.4693 155.31C18.8067 151.663 15.1265 148.04 11.4992 144.364C5.79072 138.577 2.16341 131.676 0.687793 123.702C-1.72845 110.656 2.43972 97.5107 11.6873 88.2879C37.2666 62.7772 62.8459 37.2664 88.4252 11.7557C93.7985 6.39674 100.183 2.81434 107.585 1.07297C111.841 0.0703619 116.144 -0.228664 120.501 0.199349C129.472 1.07883 137.267 4.57329 143.911 10.6417C144.305 10.9993 144.681 11.3746 145.063 11.7498C170.995 37.6065 196.921 63.4691 222.853 89.3257C227.968 94.4267 231.478 100.454 233.329 107.437C234.582 112.145 234.934 116.924 234.411 121.767C233.406 131.083 229.596 139.104 222.965 145.73C197.38 171.287 171.765 196.816 146.151 222.35C140.395 228.084 133.493 231.725 125.51 233.285C121.953 233.982 118.355 234.188 114.722 233.871C104.974 233.021 96.6204 229.175 89.6656 222.326C86.0912 218.808 82.558 215.25 79.013 211.708C78.7543 211.456 78.525 211.204 78.2899 210.952Z" fill="#7016CD"/>
<path d="M268.668 23.2769H300.896C304.423 23.2769 307.727 23.8339 310.796 24.942C313.865 26.056 316.534 27.5805 318.798 29.5329C321.061 31.4853 322.842 33.7603 324.147 36.3635C325.452 38.9668 326.105 41.7577 326.105 44.742C326.105 49.1042 325.047 52.757 322.942 55.7062C320.832 58.6495 318.204 60.8893 315.059 62.4195V63.3401C319.28 64.8704 322.672 67.2625 325.241 70.5166C327.81 73.7707 329.097 77.8046 329.097 82.6241C329.097 86.1479 328.386 89.3023 326.969 92.0932C325.547 94.8899 323.612 97.2762 321.155 99.2697C318.698 101.263 315.84 102.793 312.578 103.861C309.315 104.934 305.805 105.467 302.048 105.467H268.668V23.2769ZM299.744 56.7967C303.348 56.7967 306.134 55.8176 308.086 53.871C310.044 51.9186 311.02 49.6026 311.02 46.9231C311.02 44.2437 310.061 41.9511 308.139 40.0397C306.222 38.1283 303.571 37.1668 300.197 37.1668H284.2V56.7967H299.744ZM301.472 91.2313C305.388 91.2313 308.38 90.258 310.449 88.3055C312.525 86.3531 313.559 83.8495 313.559 80.7889C313.559 77.7283 312.501 75.1837 310.397 73.155C308.286 71.1264 305.158 70.112 301.02 70.112H284.218V91.2313H301.472Z" fill="#7016CD"/>
<path d="M392.625 91.9231C390.015 96.514 386.505 100.225 382.096 103.057C377.687 105.889 372.296 107.302 365.923 107.302C361.626 107.302 357.651 106.558 354.012 105.063C350.367 103.573 347.199 101.486 344.518 98.8065C341.831 96.127 339.744 92.9726 338.245 89.3375C336.752 85.7023 335.999 81.7036 335.999 77.3414C335.999 73.284 336.728 69.4436 338.186 65.8085C339.644 62.1733 341.678 58.9954 344.289 56.2808C346.893 53.5661 349.985 51.4026 353.554 49.7961C357.122 48.1896 361.055 47.3863 365.353 47.3863C369.88 47.3863 373.907 48.1309 377.44 49.6261C380.967 51.1153 383.924 53.185 386.3 55.8235C388.681 58.4619 390.479 61.5811 391.708 65.1752C392.937 68.7752 393.548 72.6743 393.548 76.884C393.548 77.4176 393.548 77.8808 393.548 78.2619C393.472 78.7192 393.431 79.1414 393.431 79.5225C393.354 79.9095 393.319 80.3257 393.319 80.7831H350.85C351.155 83.0756 351.79 85.0515 352.748 86.6932C353.707 88.3407 354.894 89.7186 356.317 90.8267C357.734 91.9349 359.286 92.7381 360.979 93.2365C362.666 93.7349 364.395 93.9811 366.158 93.9811C369.609 93.9811 372.466 93.1954 374.736 91.63C376.999 90.0645 378.78 88.0886 380.086 85.7199L392.625 91.9231ZM378.927 70.112C378.851 69.1212 378.528 68.0072 377.951 66.7818C377.375 65.5564 376.529 64.413 375.418 63.3401C374.301 62.273 372.925 61.3876 371.273 60.7016C369.621 60.0098 367.646 59.6697 365.347 59.6697C362.125 59.6697 359.286 60.5902 356.828 62.4254C354.371 64.2606 352.648 66.8287 351.649 70.1179H378.927V70.112Z" fill="#7016CD"/>
<path d="M397.805 62.0736V49.2156H407.705V31.9954H422.784V49.2156H436.594V62.0736H422.784V84.5472C422.784 85.8899 422.92 87.1329 423.19 88.2762C423.46 89.4195 423.978 90.387 424.742 91.1785C425.818 92.4391 427.352 93.0723 429.345 93.0723C430.65 93.0723 431.685 92.9375 432.455 92.6736C433.219 92.4039 433.948 92.0404 434.642 91.5831L438.898 104.781C437.135 105.62 435.236 106.253 433.202 106.675C431.168 107.091 428.922 107.308 426.47 107.308C423.631 107.308 421.079 106.857 418.816 105.96C416.553 105.063 414.654 103.831 413.119 102.272C409.51 98.7537 407.711 93.7583 407.711 87.2736V62.0736H397.805Z" fill="#7016CD"/>
<path d="M481.245 99.4984H480.322C478.558 101.644 476.424 103.479 473.931 105.01C471.438 106.54 468.234 107.308 464.319 107.308C461.403 107.308 458.658 106.827 456.089 105.872C453.514 104.916 451.274 103.597 449.357 101.914C447.441 100.231 445.941 98.2026 444.866 95.828C443.79 93.4593 443.255 90.856 443.255 88.0241C443.255 85.116 443.831 82.4951 444.983 80.1616C446.135 77.828 447.746 75.8228 449.816 74.1342C451.891 72.4515 454.325 71.1733 457.123 70.288C459.922 69.4085 462.973 68.9687 466.271 68.9687C469.951 68.9687 472.985 69.256 475.366 69.8306C477.741 70.4052 479.698 70.9974 481.233 71.613V69.8892C481.233 66.9049 480.045 64.4365 477.664 62.484C475.283 60.5316 472.332 59.5583 468.799 59.5583C463.578 59.5583 459.169 61.7394 455.565 66.1016L444.63 58.6436C450.615 51.1446 458.787 47.3922 469.146 47.3922C477.893 47.3922 484.566 49.4384 489.169 53.5309C493.773 57.6235 496.077 63.686 496.077 71.7244V105.473H481.233V99.4984H481.245ZM481.245 82.6241C479.481 81.7857 477.658 81.1114 475.777 80.613C473.896 80.1147 471.844 79.8684 469.622 79.8684C466.012 79.8684 463.231 80.6541 461.28 82.2195C459.322 83.7909 458.346 85.7199 458.346 88.0124C458.346 90.3107 459.287 92.1459 461.168 93.5238C463.049 94.9016 465.213 95.5876 467.67 95.5876C469.663 95.5876 471.503 95.2241 473.196 94.4971C474.883 93.77 476.324 92.8143 477.511 91.6241C478.699 90.4397 479.622 89.0619 480.275 87.4906C480.921 85.9368 481.245 84.3068 481.245 82.6241Z" fill="#7016CD"/>
<path d="M508.064 49.2215H522.221V57.0254H523.144C523.832 55.6476 524.755 54.387 525.907 53.2378C527.059 52.0886 528.341 51.0919 529.763 50.2358C531.18 49.3857 532.715 48.6938 534.367 48.172C536.013 47.6502 537.647 47.3863 539.258 47.3863C541.251 47.3863 542.956 47.5974 544.378 48.0254C545.801 48.4476 547.006 49.0046 548.006 49.6847L543.979 63.1114C543.056 62.6541 542.039 62.2906 540.928 62.0209C539.811 61.7511 538.453 61.6222 536.842 61.6222C534.772 61.6222 532.891 62.0267 531.204 62.8358C529.517 63.6449 528.076 64.7765 526.889 66.2423C525.701 67.7023 524.778 69.4143 524.126 71.3785C523.473 73.3427 523.15 75.4769 523.15 77.7811V105.473H508.07V49.2215H508.064Z" fill="#7016CD"/>
<path d="M293.877 210.723C290.343 210.723 286.969 210.225 283.747 209.234C280.526 208.237 277.568 206.748 274.882 204.754C272.195 202.767 269.855 200.334 267.862 197.466C265.863 194.599 264.294 191.251 263.142 187.423L277.757 181.683C278.827 185.816 280.708 189.24 283.395 191.955C286.081 194.676 289.609 196.03 293.982 196.03C295.593 196.03 297.145 195.819 298.645 195.397C300.138 194.98 301.484 194.365 302.672 193.562C303.859 192.758 304.8 191.744 305.493 190.519C306.187 189.293 306.528 187.88 306.528 186.274C306.528 184.743 306.258 183.365 305.723 182.14C305.182 180.915 304.282 179.765 303.018 178.698C301.754 177.625 300.102 176.593 298.068 175.597C296.034 174.6 293.524 173.568 290.532 172.495L285.464 170.66C283.236 169.898 280.996 168.866 278.733 167.558C276.469 166.257 274.417 164.685 272.577 162.85C270.737 161.015 269.22 158.851 268.033 156.365C266.845 153.879 266.246 151.065 266.246 147.928C266.246 144.715 266.881 141.713 268.145 138.917C269.409 136.126 271.213 133.675 273.553 131.57C275.893 129.465 278.691 127.823 281.954 126.633C285.211 125.449 288.838 124.851 292.83 124.851C296.975 124.851 300.561 125.408 303.595 126.516C306.622 127.624 309.197 129.043 311.308 130.761C313.418 132.485 315.123 134.378 316.428 136.442C317.733 138.512 318.692 140.459 319.309 142.294L305.611 148.034C304.841 145.736 303.442 143.672 301.408 141.836C299.374 140.001 296.593 139.081 293.065 139.081C289.691 139.081 286.887 139.866 284.664 141.432C282.436 143.003 281.325 145.05 281.325 147.571C281.325 150.022 282.401 152.103 284.547 153.827C286.693 155.55 290.108 157.21 294.788 158.822L299.967 160.546C303.265 161.695 306.275 163.014 309.003 164.509C311.725 165.999 314.065 167.781 316.023 169.845C317.98 171.915 319.474 174.266 320.508 176.904C321.543 179.543 322.06 182.586 322.06 186.027C322.06 190.313 321.196 194.007 319.474 197.103C317.745 200.205 315.541 202.749 312.854 204.737C310.167 206.73 307.134 208.22 303.759 209.216C300.396 210.225 297.098 210.723 293.877 210.723Z" fill="#7016CD"/>
<path d="M336.346 165.494H326.446V152.636H336.346V135.416H351.426V152.636H365.235V165.494H351.42V187.968C351.42 189.311 351.555 190.554 351.825 191.697C352.096 192.84 352.613 193.808 353.377 194.599C354.453 195.86 355.988 196.493 357.981 196.493C359.286 196.493 360.32 196.358 361.091 196.094C361.855 195.825 362.584 195.461 363.278 195.004L367.534 208.202C365.77 209.04 363.871 209.674 361.837 210.096C359.803 210.512 357.557 210.729 355.106 210.729C352.266 210.729 349.715 210.278 347.451 209.38C345.188 208.483 343.289 207.252 341.755 205.693C338.145 202.175 336.346 197.179 336.346 190.694V165.494Z" fill="#7016CD"/>
<path d="M402.408 150.807C406.782 150.807 410.791 151.552 414.436 153.047C418.081 154.536 421.226 156.606 423.872 159.244C426.517 161.883 428.593 165.043 430.086 168.713C431.579 172.384 432.332 176.406 432.332 180.768C432.332 185.13 431.585 189.147 430.086 192.823C428.593 196.493 426.517 199.653 423.872 202.292C421.226 204.93 418.075 207 414.436 208.489C410.791 209.978 406.782 210.729 402.408 210.729C398.034 210.729 394.025 209.984 390.38 208.489C386.735 206.994 383.589 204.93 380.944 202.292C378.298 199.653 376.223 196.493 374.73 192.823C373.237 189.152 372.484 185.13 372.484 180.768C372.484 176.406 373.231 172.39 374.73 168.713C376.223 165.043 378.298 161.883 380.944 159.244C383.589 156.606 386.735 154.536 390.38 153.047C394.025 151.558 398.034 150.807 402.408 150.807ZM402.408 196.833C404.324 196.833 406.188 196.47 407.987 195.743C409.792 195.016 411.385 193.96 412.767 192.588C414.148 191.21 415.242 189.528 416.047 187.534C416.852 185.547 417.258 183.289 417.258 180.762C417.258 178.235 416.858 175.984 416.047 173.99C415.242 172.003 414.148 170.32 412.767 168.936C411.385 167.558 409.792 166.509 407.987 165.782C406.182 165.055 404.324 164.691 402.408 164.691C400.409 164.691 398.534 165.055 396.77 165.782C395.006 166.509 393.431 167.564 392.049 168.936C390.668 170.314 389.574 171.997 388.769 173.99C387.963 175.984 387.558 178.235 387.558 180.762C387.558 183.289 387.957 185.547 388.769 187.534C389.574 189.528 390.668 191.205 392.049 192.588C393.431 193.966 395 195.016 396.77 195.743C398.534 196.47 400.409 196.833 402.408 196.833Z" fill="#7016CD"/>
<path d="M440.85 152.642H455.007V160.446H455.93C456.618 159.068 457.541 157.808 458.693 156.659C459.845 155.509 461.127 154.513 462.549 153.657C463.966 152.807 465.501 152.115 467.153 151.593C468.799 151.071 470.433 150.807 472.044 150.807C474.037 150.807 475.742 151.018 477.165 151.446C478.587 151.868 479.792 152.425 480.792 153.106L476.765 166.532C475.842 166.075 474.825 165.711 473.714 165.442C472.597 165.172 471.239 165.043 469.628 165.043C467.558 165.043 465.677 165.448 463.99 166.257C462.303 167.066 460.862 168.197 459.675 169.663C458.487 171.123 457.564 172.835 456.912 174.799C456.259 176.764 455.936 178.898 455.936 181.202V208.894H440.856V152.642H440.85Z" fill="#7016CD"/>
<path d="M537.641 195.344C535.031 199.935 531.521 203.646 527.112 206.478C522.703 209.31 517.312 210.723 510.939 210.723C506.642 210.723 502.667 209.979 499.028 208.483C495.383 206.994 492.215 204.907 489.534 202.227C486.847 199.548 484.76 196.393 483.261 192.758C481.762 189.123 481.015 185.124 481.015 180.762C481.015 176.705 481.744 172.865 483.202 169.229C484.66 165.594 486.694 162.416 489.305 159.702C491.909 156.987 495.001 154.823 498.57 153.217C502.138 151.61 506.071 150.807 510.369 150.807C514.896 150.807 518.923 151.552 522.456 153.047C525.983 154.536 528.94 156.606 531.315 159.244C533.696 161.883 535.495 165.002 536.724 168.596C537.953 172.196 538.564 176.095 538.564 180.305C538.564 180.838 538.564 181.302 538.564 181.683C538.488 182.14 538.447 182.562 538.447 182.943C538.37 183.33 538.335 183.747 538.335 184.204H495.865C496.171 186.496 496.806 188.472 497.764 190.114C498.723 191.762 499.91 193.139 501.333 194.248C502.75 195.356 504.302 196.159 505.995 196.657C507.682 197.156 509.411 197.402 511.174 197.402C514.625 197.402 517.482 196.616 519.752 195.051C522.015 193.485 523.796 191.509 525.101 189.141L537.641 195.344ZM523.949 173.533C523.873 172.542 523.549 171.428 522.973 170.203C522.397 168.977 521.551 167.834 520.439 166.761C519.322 165.694 517.947 164.808 516.295 164.122C514.643 163.431 512.667 163.091 510.369 163.091C507.147 163.091 504.308 164.011 501.85 165.846C499.393 167.681 497.67 170.25 496.671 173.539H523.949V173.533Z" fill="#7016CD"/>
</svg>
