<svg width="682" height="270" viewBox="0 0 682 270" fill="none" xmlns="http://www.w3.org/2000/svg">
<path d="M127.9 120.4H101.2C98.8 120.4 96.7 119 95.7 116.9L66.7 49.1C66.5 48.4 65.8 48 65.1 48.2C64.7 48.3 64.4 48.6 64.2 49L46.1 92.1C45.8 92.9 46.1 93.8 46.9 94.1C47.1 94.1 47.3 94.2 47.5 94.2H67.4C68.6 94.2 69.7 94.9 70.2 96.1L78.9 115.5C79.7 117.3 78.9 119.4 77 120.2C76.6 120.4 76.1 120.5 75.6 120.5H3.3C1.5 120.5 0 119 0 117.2C0 116.8 3.03984e-06 116.3 0.300003 115.9L46.3 6.30002C47.3 3.90002 49.6 2.40002 52.1 2.40002H78.6C81.2 2.40002 83.5 3.90002 84.4 6.30002L130.7 115.9C131.4 117.6 130.7 119.5 129 120.2C128.6 120.4 128.2 120.5 127.7 120.5L127.9 120.4Z" fill="#E41B13"/>
<path d="M176.4 120.4C161.9 120.4 150.6 116.6 142.4 108.9C134.3 101.2 130.2 90.9 130.2 77.9C130.2 64.9 134.4 53.2 142.8 44.8C151.2 36.4 162.1 32.2 175.5 32.2C188.9 32.2 180.5 32.4 183 32.7V1.29999L210.8 0V113.9C200.3 118.3 188.8 120.4 176.3 120.4H176.4ZM176.3 97.5C179 97.5 181.3 97.1 183.2 96.4V56C180.8 55.5 178.8 55.2 177.3 55.2C164.9 55.2 158.6 62.3 158.6 76.5C158.6 90.7 164.5 97.6 176.3 97.6V97.5Z" fill="#E41B13"/>
<path d="M292.6 108.4C285 116.4 274.7 120.4 261.7 120.4C248.7 120.4 238.4 116.4 230.7 108.4C223 100.4 219.2 89.7 219.2 76.2C219.2 62.7 223 52.2 230.7 44.2C238.4 36.2 248.7 32.2 261.7 32.2C274.7 32.2 285 36.2 292.6 44.2C300.2 52.2 304.1 62.9 304.1 76.2C304.1 89.5 300.3 100.3 292.6 108.4ZM251.2 91.8999C253.7 95.6999 257.2 97.5 261.7 97.5C266.2 97.5 269.6 95.5999 272.1 91.8999C274.6 88.1999 275.8 82.8999 275.8 76.2999C275.8 69.6999 274.5 64.4999 272 60.7999C269.5 57.0999 266.1 55.2 261.7 55.2C257.3 55.2 253.7 57.0999 251.2 60.7999C248.7 64.4999 247.4 69.6999 247.4 76.2999C247.4 82.8999 248.7 88.1999 251.2 91.8999Z" fill="#E41B13"/>
<path d="M348.1 120.4C331.7 120.4 319.8 118.3 312.3 114.2V1.29999L340.1 0V32.7C342.4 32.4 345.4 32.2 349.3 32.2C362.5 32.2 373.1 36.1 381 43.8C389 51.5 392.9 62.1 392.9 75.4C392.9 88.7 388.9 100.2 380.8 108.3C372.7 116.4 361.8 120.4 348.1 120.4ZM346.8 97.5C358.7 97.5 364.6 90.5 364.6 76.4C364.6 62.3 363.2 64.1 360.4 60.5C357.6 56.9 353.1 55.1 346.7 55.1C340.3 55.1 342.9 55.4 340 55.9V96.5C342 97.2 344.2 97.5 346.7 97.5H346.8Z" fill="#E41B13"/>
<path d="M475.4 70.1999C475.4 74.8999 475.2 79.3999 474.7 83.7999H426.4C428.6 92.6999 434.9 97.1999 445.2 97.1999C455.5 97.1999 459.4 95.6999 467 92.7999L471.3 114.9C463.1 118.6 453.4 120.5 442.2 120.5C431 120.5 417.9 116.5 409.6 108.4C401.3 100.3 397.1 89.5999 397.1 76.2999C397.1 62.9999 401 52.4999 408.8 44.3999C416.6 36.2999 426.7 32.2999 439 32.2999C451.3 32.2999 458.4 35.7999 465.3 42.7999C472.1 49.7999 475.5 58.8999 475.5 70.2999L475.4 70.1999ZM448.9 67.3999V66.0999C448.9 62.3999 448 59.4999 446.1 57.3999C444.2 55.2999 441.8 54.2999 438.9 54.2999C436 54.2999 432.5 55.3999 430.3 57.6999C428.1 59.9999 426.6 63.1999 425.8 67.3999H448.9Z" fill="#E41B13"/>
<path d="M15.2998 154.5H43.7998V267.1H15.2998V154.5Z" fill="#1D1D1B"/>
<path d="M83.1997 234.2C83.1997 242.5 85.7997 246.6 90.8997 246.6C95.9997 246.6 93.9997 246.4 95.6997 246.1L97.5997 267.7C93.1997 268.7 88.6997 269.1 84.1997 269.1C65.1997 269.1 55.6997 257.6 55.6997 234.5V152L83.0997 150.4V234.2H83.1997Z" fill="#1D1D1B"/>
<path d="M127.5 234.2C127.5 242.5 130.1 246.6 135.2 246.6C140.3 246.6 138.3 246.4 140 246.1L141.9 267.7C137.5 268.7 133 269.1 128.5 269.1C109.5 269.1 100 257.6 100 234.5V152L127.4 150.4V234.2H127.5Z" fill="#1D1D1B"/>
<path d="M184.9 269.1C170.7 269.1 160.7 265.9 154.8 259.5C148.9 253.1 145.9 243.9 145.9 231.9V184.3H173.3V232.1C173.3 241.8 177.4 246.6 185.7 246.6C194 246.6 192.3 246.1 195.2 245V184.3H222.6V262.5C210.2 266.9 197.6 269.1 184.9 269.1Z" fill="#1D1D1B"/>
<path d="M288.5 209.5C278.3 206.4 270.5 204.8 265.2 204.8C259.9 204.8 256.8 206 256.8 208.3C256.8 210.6 257.5 210.8 258.9 211.5C260.3 212.3 263.3 213.3 268.1 214.6C278.1 217.2 285.2 220.4 289.3 224.4C293.5 228.4 295.6 234.1 295.6 241.6C295.6 249.1 292.4 257.3 285.9 262C279.4 266.7 270.7 269 259.9 269C249.1 269 238.5 267.1 229.8 263.4L233.3 241.2C242 244.7 250.7 246.5 259.4 246.5C268.1 246.5 268.9 245.1 268.9 242.3C268.9 239.5 268.1 239.2 266.4 238.4C264.7 237.6 260.5 236.3 253.8 234.5C245.8 232.5 239.8 229.4 235.9 225.4C232 221.4 230.1 215.9 230.1 209.1C230.1 202.3 233 194.1 238.8 189.4C244.6 184.7 252.6 182.4 262.9 182.4C273.2 182.4 282.5 184.1 291.2 187.4L288.5 209.6V209.5Z" fill="#1D1D1B"/>
<path d="M348.7 245.9L350.1 267.8C345.8 268.7 340.8 269.1 335 269.1C314.1 269.1 303.6 257.6 303.6 234.5V206H293.1V184.3H303.6V167.1L331 165.8V184.3H346.9V206H331V234.2C331 242.5 334.3 246.6 340.8 246.6C347.3 246.6 346.5 246.4 348.7 246V245.9Z" fill="#1D1D1B"/>
<path d="M389.6 182.3C397.1 182.3 402.8 182.9 406.7 184.2L402.8 206.4C399.9 205.3 396.3 204.8 392 204.8C387.7 204.8 385.6 205.3 383.1 206.2V267H355.7V188.8C365.2 184.4 376.5 182.2 389.5 182.2L389.6 182.3Z" fill="#1D1D1B"/>
<path d="M440.9 269.1C429.9 269.1 421.4 266.7 415.5 261.9C409.6 257.1 406.6 250.8 406.6 243.1C406.6 235.4 409.5 229.3 415.5 224.6C421.4 219.9 429.3 217.5 439.3 217.5C449.3 217.5 447.8 217.8 451.2 218.3V217C451.2 209 446.5 204.9 437.2 204.9C427.9 204.9 422.2 206.1 416 208.6L411.3 187.4C419.8 184.1 429.5 182.4 440.4 182.4C451.3 182.4 462 185.6 468.3 191.9C474.6 198.2 477.7 207.2 477.7 218.8V262.4C467.9 266.9 455.7 269.2 440.9 269.2V269.1ZM451.2 248.6V234.9C448.3 234.3 445.6 233.9 443.2 233.9C440.8 233.9 438.1 234.6 436.4 235.9C434.6 237.2 433.7 239.2 433.7 241.8C433.7 247.1 437.1 249.7 443.8 249.7C450.5 249.7 449.4 249.3 451.2 248.6Z" fill="#1D1D1B"/>
<path d="M537.3 245.9L538.7 267.8C534.4 268.7 529.4 269.1 523.6 269.1C502.7 269.1 492.2 257.6 492.2 234.5V206H481.7V184.3H492.2V167.1L519.6 165.8V184.3H535.5V206H519.6V234.2C519.6 242.5 522.9 246.6 529.4 246.6C535.9 246.6 535.1 246.4 537.3 246V245.9Z" fill="#1D1D1B"/>
<path d="M611.8 257.2C604.3 265.1 594.2 269 581.4 269C568.6 269 558.5 265.1 550.9 257.2C543.3 249.3 539.6 238.8 539.6 225.6C539.6 212.4 543.4 202 550.9 194.1C558.5 186.2 568.6 182.3 581.4 182.3C594.2 182.3 604.3 186.2 611.8 194.1C619.3 202 623.1 212.5 623.1 225.6C623.1 238.7 619.3 249.3 611.8 257.2ZM571.1 241C573.6 244.7 577 246.6 581.4 246.6C585.8 246.6 589.2 244.7 591.6 241C594 237.3 595.2 232.2 595.2 225.6C595.2 219 594 214 591.5 210.3C589 206.7 585.7 204.8 581.4 204.8C577.1 204.8 573.6 206.6 571.1 210.3C568.6 213.9 567.4 219 567.4 225.6C567.4 232.2 568.6 237.3 571.1 241Z" fill="#1D1D1B"/>
<path d="M664.9 182.3C672.4 182.3 678.1 182.9 682 184.2L678.1 206.4C675.2 205.3 671.6 204.8 667.3 204.8C663 204.8 660.9 205.3 658.5 206.2V267H631.1V188.8C640.6 184.4 651.9 182.2 664.9 182.2V182.3Z" fill="#1D1D1B"/>
</svg>
