<svg width="302" height="92" viewBox="0 0 302 92" fill="none" xmlns="http://www.w3.org/2000/svg">
<path fill-rule="evenodd" clip-rule="evenodd" d="M42.8079 61.98L42.7698 91.9915L49.1147 92L49.1528 61.8482L60.7272 89.6896L66.5858 87.2545L55.0912 59.6043L76.2394 80.8045L80.7316 76.3244L59.4926 55.0329L87.271 66.5596L89.7021 60.7005L61.9211 49.1718H92V42.8276H61.9932L89.7285 31.3741L87.3059 25.5102L59.6896 36.9148L80.9251 15.898L76.4626 11.389L54.9628 32.6665L66.5488 4.72593L60.6873 2.29609L49.1932 30.0161L49.2313 0.00803485L42.8865 0L42.8482 30.1541L31.2728 2.30973L25.414 4.74486L36.9078 32.3928L15.7609 11.1941L11.2687 15.6745L32.5085 36.9662L4.72975 25.4387L2.29767 31.2984L30.0804 42.8276H0V49.1718H30.009L2.27282 60.6258L4.69475 66.4898L32.31 55.0856L11.0748 76.1013L15.5382 80.611L37.0364 59.3343L25.4515 87.2735L31.3125 89.7034L42.8079 61.98Z" fill="white"/>
<path d="M116 23.3212H119.02V33.7591C120.719 30.3431 123.362 27.5912 126.949 25.5036C130.535 23.3528 134.311 22.2774 138.275 22.2774C142.365 22.2774 146.109 23.2895 149.507 25.3139C152.967 27.3382 155.705 30.0584 157.718 33.4745C159.732 36.8905 160.739 40.6229 160.739 44.6715C160.739 48.7202 159.732 52.4526 157.718 55.8686C155.705 59.2847 152.967 62.0048 149.507 64.0292C146.109 66.0536 142.365 67.0657 138.275 67.0657C134.437 67.0657 130.724 66.0219 127.137 63.9343C123.614 61.8467 120.908 59.0949 119.02 55.6788V85H116V23.3212ZM138.464 64.4088C141.924 64.4088 145.134 63.5231 148.091 61.7518C151.048 59.9172 153.377 57.5134 155.075 54.5401C156.837 51.5036 157.718 48.2141 157.718 44.6715C157.718 41.1922 156.837 37.9343 155.075 34.8978C153.314 31.8613 150.954 29.4574 147.997 27.6861C145.039 25.8515 141.83 24.9343 138.369 24.9343C134.908 24.9343 131.668 25.8515 128.648 27.6861C125.69 29.5207 123.299 31.9562 121.474 34.9927C119.712 38.0292 118.832 41.2871 118.832 44.7664C118.832 48.2457 119.712 51.5036 121.474 54.5401C123.299 57.5134 125.722 59.9172 128.742 61.7518C131.762 63.5231 135.003 64.4088 138.464 64.4088ZM187.753 84.9051C180.706 84.9051 175.137 82.3747 171.047 77.3139V72.4745C173.124 75.764 175.483 78.1995 178.126 79.781C180.769 81.4258 183.852 82.2482 187.376 82.2482C190.962 82.2482 194.014 81.4891 196.531 79.9708C199.111 78.4526 201.062 76.365 202.383 73.708C203.704 71.1143 204.365 68.2044 204.365 64.9781V57.7664C202.855 60.7397 200.558 63.0486 197.475 64.6934C194.455 66.2749 191.151 67.0657 187.565 67.0657C183.978 67.0657 180.8 66.2749 178.032 64.6934C175.263 63.112 173.092 60.8978 171.519 58.0511C170.009 55.2044 169.254 51.9149 169.254 48.1825V23.3212H172.274V48.1825C172.274 51.5985 172.966 54.5401 174.351 57.0073C175.798 59.4112 177.686 61.2457 180.014 62.511C182.342 63.7762 184.89 64.4088 187.659 64.4088C190.679 64.4088 193.479 63.6813 196.059 62.2263C198.639 60.708 200.653 58.7153 202.1 56.2482C203.61 53.7178 204.365 51.0292 204.365 48.1825V23.3212H207.385V64.6934C207.385 68.4891 206.599 71.9051 205.026 74.9416C203.516 78.0413 201.282 80.4769 198.324 82.2482C195.367 84.0194 191.843 84.9051 187.753 84.9051ZM248.232 66.0219L232.753 42.5839L217.462 66.0219H214.442L230.96 40.781L219.444 23.3212H222.937L232.659 38.1241L242.286 23.3212H245.306L234.452 39.927L251.725 66.0219H248.232ZM263.01 13.5474C262.129 13.5474 261.342 13.2311 260.651 12.5985C260.021 11.9659 259.707 11.1752 259.707 10.2263C259.707 9.34063 260.021 8.5815 260.651 7.9489C261.342 7.3163 262.129 7 263.01 7C263.89 7 264.645 7.3163 265.275 7.9489C265.967 8.5815 266.314 9.34063 266.314 10.2263C266.314 11.1752 265.967 11.9659 265.275 12.5985C264.645 13.2311 263.89 13.5474 263.01 13.5474ZM261.5 23.3212H264.52V66.0219H261.5V23.3212ZM288.88 67.0657C285.86 67.0657 283.187 66.5596 280.858 65.5474C278.53 64.472 276.863 63.112 275.855 61.4672V56.438C277.052 59.1581 278.687 61.1825 280.763 62.511C282.84 63.7762 285.483 64.4088 288.692 64.4088C291.776 64.4088 294.26 63.4599 296.148 61.562C298.036 59.601 298.98 57.1022 298.98 54.0657C298.98 51.472 298.445 49.4793 297.375 48.0876C296.306 46.6326 294.575 45.1777 292.184 43.7226L288.597 41.635C286.018 40.0536 284.067 38.82 282.745 37.9343C281.488 36.9854 280.48 35.9416 279.725 34.8029C278.97 33.601 278.593 32.2092 278.593 30.6277C278.593 28.0974 279.474 26.073 281.235 24.5547C282.998 23.0365 285.294 22.2774 288.125 22.2774C291.587 22.2774 294.481 23.0682 296.809 24.6496V28.8248C294.859 26.2311 292.059 24.9343 288.409 24.9343C286.396 24.9343 284.759 25.4404 283.501 26.4526C282.243 27.4647 281.613 28.7616 281.613 30.3431C281.613 31.7348 281.99 32.9683 282.745 34.0438C283.501 35.0559 284.539 36.0048 285.86 36.8905C287.245 37.7762 289.51 39.1047 292.656 40.8759C295.865 42.7105 298.225 44.6083 299.735 46.5693C301.245 48.4672 302 50.966 302 54.0657C302 57.9879 300.71 61.1508 298.13 63.5547C295.614 65.8953 292.531 67.0657 288.88 67.0657Z" fill="white"/>
</svg>
