<svg width="92" height="92" viewBox="0 0 92 92" fill="none" xmlns="http://www.w3.org/2000/svg">
<g clip-path="url(#clip0_3769_134)">
<path fill-rule="evenodd" clip-rule="evenodd" d="M42.8079 61.98L42.7698 91.9915L49.1147 92L49.1528 61.8482L60.7272 89.6896L66.5858 87.2545L55.0912 59.6043L76.2394 80.8045L80.7316 76.3244L59.4926 55.0329L87.271 66.5596L89.7021 60.7005L61.9211 49.1718H92V42.8276H61.9932L89.7285 31.3741L87.3059 25.5102L59.6896 36.9148L80.9251 15.898L76.4626 11.389L54.9628 32.6665L66.5488 4.72593L60.6873 2.29609L49.1932 30.0161L49.2313 0.00803485L42.8865 0L42.8482 30.1541L31.2728 2.30973L25.414 4.74486L36.9078 32.3928L15.7609 11.1941L11.2687 15.6745L32.5085 36.9662L4.72975 25.4387L2.29767 31.2984L30.0804 42.8276H0V49.1718H30.009L2.27282 60.6258L4.69475 66.4898L32.31 55.0856L11.0748 76.1013L15.5382 80.611L37.0364 59.3343L25.4515 87.2735L31.3125 89.7034L42.8079 61.98Z" fill="black"/>
</g>
<defs>
<clipPath id="clip0_3769_134">
<rect width="92" height="92" fill="white"/>
</clipPath>
</defs>
</svg>
