<svg width="759" height="295" viewBox="0 0 759 295" fill="none" xmlns="http://www.w3.org/2000/svg">
<g clip-path="url(#clip0_3325_6)">
<path d="M468.812 37.7317H504.793C508.749 37.7317 512.438 38.3533 515.859 39.6005C519.28 40.8478 522.226 42.5123 524.699 44.5856C527.172 46.663 529.106 49.095 530.51 51.8774C531.909 54.664 532.611 57.5508 532.611 60.5418C532.611 65.4475 531.437 69.519 529.089 72.7603C526.741 76.0016 523.959 78.4127 520.743 79.9896V81.2369C525.442 82.9806 529.131 85.642 531.809 89.217C534.487 92.7921 535.828 97.1972 535.828 102.433C535.828 106.258 535.063 109.687 533.538 112.72C532.014 115.756 529.908 118.33 527.234 120.449C524.557 122.569 521.382 124.191 517.714 125.309C514.046 126.432 510.069 126.991 505.783 126.991H468.812V37.7317ZM502.938 73.1357C506.401 73.1357 509.079 72.3473 510.975 70.7663C512.872 69.1894 513.82 66.9451 513.82 64.0334C513.82 61.1258 512.872 58.8815 510.975 57.3005C509.079 55.7236 506.564 54.931 503.435 54.931H488.103V73.1315H502.938V73.1357ZM504.546 109.541C512.542 109.541 516.54 106.216 516.54 99.5667C516.54 92.9172 512.375 89.5925 504.053 89.5925H488.103V109.541H504.546Z" fill="#0A0A0A"/>
<path d="M546.706 65.9064H564.018V73.6363H565.254C566.904 70.979 569.252 68.693 572.302 66.7782C575.351 64.8676 578.731 63.9124 582.441 63.9124C584.667 63.9124 586.601 64.1877 588.252 64.7341C589.897 65.2848 591.259 65.8938 592.333 66.5655L587.512 83.235C586.438 82.6552 585.306 82.1963 584.112 81.8626C582.917 81.533 581.371 81.362 579.475 81.362C574.858 81.362 571.333 82.9805 568.901 86.226C566.47 89.4673 565.254 93.7056 565.254 98.9409V126.99H546.706V65.9064Z" fill="#0A0A0A"/>
<path d="M633.628 121.509H632.391C630.411 123.67 628.168 125.455 625.653 126.869C623.138 128.284 619.905 128.989 615.949 128.989C612.899 128.989 610.033 128.488 607.355 127.491C604.678 126.494 602.326 125.08 600.308 123.253C598.286 121.426 596.703 119.223 595.545 116.645C594.388 114.071 593.816 111.201 593.816 108.043C593.816 104.969 594.434 102.166 595.671 99.6292C596.907 97.0971 598.595 94.9154 600.742 93.084C602.885 91.2569 605.421 89.8427 608.345 88.8457C611.27 87.8487 614.466 87.3482 617.929 87.3482C621.638 87.3482 624.709 87.5984 627.14 88.0949C629.572 88.5955 631.736 89.1753 633.632 89.8386V88.22C633.632 85.5627 632.538 83.2976 630.357 81.4245C628.172 79.5557 625.227 78.6213 621.517 78.6213C616.157 78.6213 611.541 80.8238 607.669 85.229L595.057 76.2518C598.52 72.0969 602.539 69.0016 607.113 66.9659C611.688 64.9302 616.734 63.9124 622.261 63.9124C632.153 63.9124 639.61 66.1358 644.64 70.5827C649.665 75.0295 652.18 81.7833 652.18 90.8398V126.995H633.632V121.509H633.628ZM633.628 102.933C631.731 102.186 629.856 101.607 628.001 101.189C626.146 100.776 624.228 100.568 622.253 100.568C618.956 100.568 616.483 101.252 614.833 102.624C613.183 103.997 612.36 105.761 612.36 107.922C612.36 110.083 613.141 111.81 614.708 113.095C616.274 114.384 618.334 115.026 620.891 115.026C622.95 115.026 624.784 114.676 626.392 113.967C628.001 113.262 629.338 112.327 630.411 111.164C631.481 110 632.287 108.69 632.822 107.238C633.361 105.778 633.628 104.347 633.628 102.933Z" fill="#0A0A0A"/>
<path d="M675.295 60.1705C673.645 60.1705 672.12 59.8576 670.72 59.236C669.317 58.6145 668.101 57.7843 667.073 56.7415C666.041 55.7027 665.218 54.4763 664.6 53.0621C663.982 51.648 663.673 50.1128 663.673 48.4484C663.673 46.8715 663.982 45.3531 664.6 43.8972C665.218 42.4455 666.041 41.1982 667.073 40.1553C668.101 39.1166 669.317 38.2865 670.72 37.6607C672.12 37.0392 673.645 36.7263 675.295 36.7263C676.861 36.7263 678.365 37.0392 679.806 37.6607C681.248 38.2823 682.484 39.1166 683.516 40.1553C684.548 41.1941 685.371 42.4414 685.989 43.8972C686.607 45.3531 686.917 46.8715 686.917 48.4484C686.917 50.1128 686.607 51.648 685.989 53.0621C685.371 54.4763 684.548 55.7027 683.516 56.7415C682.484 57.7802 681.248 58.6103 679.806 59.236C678.365 59.8576 676.861 60.1705 675.295 60.1705ZM666.021 126.99V65.9064H684.569V126.995H666.021V126.99Z" fill="#0A0A0A"/>
<path d="M716.715 73.6363H717.952C722.071 67.1537 728.253 63.9124 736.5 63.9124C744.082 63.9124 749.73 66.3652 753.44 71.2668C757.149 76.1726 759.004 82.6093 759.004 90.5895V126.99H740.456V92.7086C740.456 89.3839 739.671 86.664 738.108 84.5449C736.542 82.4257 734.11 81.3661 730.814 81.3661C726.612 81.3661 723.416 82.9847 721.231 86.2302C719.046 89.4715 717.956 93.7098 717.956 98.9451V126.995H699.407V65.9064H716.719V73.6363H716.715Z" fill="#0A0A0A"/>
<path d="M468.812 131.391H504.793C508.749 131.391 512.438 132.013 515.859 133.26C519.28 134.508 522.226 136.172 524.699 138.245C527.172 140.323 529.106 142.755 530.51 145.537C531.909 148.324 532.611 151.21 532.611 154.201C532.611 159.107 531.437 163.179 529.089 166.42C526.741 169.661 523.959 172.072 520.743 173.649V174.897C525.442 176.64 529.131 179.302 531.809 182.877C534.487 186.452 535.828 190.857 535.828 196.092C535.828 199.918 535.063 203.342 533.538 206.375C532.014 209.408 529.908 211.986 527.234 214.105C524.557 216.224 521.382 217.843 517.714 218.965C514.046 220.087 510.069 220.646 505.783 220.646H468.812V131.391ZM502.938 166.795C506.401 166.795 509.079 166.007 510.975 164.426C512.872 162.849 513.82 160.605 513.82 157.693C513.82 154.785 512.872 152.541 510.975 150.96C509.079 149.383 506.564 148.591 503.435 148.591H488.103V166.791H502.938V166.795ZM504.546 203.196C512.542 203.196 516.54 199.872 516.54 193.222C516.54 186.573 512.375 183.248 504.053 183.248H488.103V203.196H504.546Z" fill="#0A0A0A"/>
<path d="M575.886 157.572C580.586 157.572 584.93 158.382 588.928 160.004C592.926 161.623 596.389 163.871 599.314 166.737C602.238 169.603 604.506 173.032 606.115 177.024C607.723 181.012 608.525 185.376 608.525 190.115C608.525 194.853 607.723 199.217 606.115 203.205C604.506 207.193 602.238 210.622 599.314 213.492C596.385 216.358 592.926 218.602 588.928 220.225C584.93 221.848 580.582 222.657 575.886 222.657C571.186 222.657 566.838 221.848 562.844 220.225C558.846 218.602 555.383 216.358 552.458 213.492C549.53 210.626 547.266 207.197 545.657 203.205C544.049 199.213 543.247 194.853 543.247 190.115C543.247 185.376 544.049 181.012 545.657 177.024C547.266 173.036 549.53 169.607 552.458 166.737C555.383 163.871 558.846 161.627 562.844 160.004C566.838 158.382 571.186 157.572 575.886 157.572ZM575.886 205.195C577.783 205.195 579.575 204.84 581.263 204.135C582.95 203.43 584.454 202.433 585.774 201.144C587.09 199.855 588.122 198.278 588.866 196.405C589.609 194.536 589.977 192.438 589.977 190.11C589.977 187.783 589.605 185.705 588.866 183.878C588.126 182.051 587.09 180.47 585.774 179.139C584.454 177.813 582.95 176.791 581.263 176.086C579.571 175.381 577.778 175.026 575.886 175.026C573.989 175.026 572.197 175.381 570.51 176.086C568.818 176.791 567.314 177.813 565.998 179.139C564.678 180.47 563.65 182.051 562.906 183.878C562.163 185.709 561.795 187.787 561.795 190.11C561.795 192.438 562.167 194.536 562.906 196.405C563.65 198.274 564.678 199.855 565.998 201.144C567.314 202.433 568.822 203.43 570.51 204.135C572.197 204.84 573.989 205.195 575.886 205.195Z" fill="#0A0A0A"/>
<path d="M623.735 175.272H613.104V159.566H623.735V140.865H642.284V159.566H657.244V175.272H642.284V196.555C642.284 197.932 642.447 199.2 642.777 200.36C643.107 201.519 643.683 202.487 644.506 203.263C645.743 204.381 647.351 204.94 649.327 204.94C650.643 204.94 651.758 204.773 652.665 204.444C653.571 204.114 654.353 203.697 655.013 203.196L660.205 219.403C658.062 220.4 655.756 221.188 653.283 221.772C650.81 222.352 648.17 222.644 645.371 222.644C638.858 222.644 633.707 220.692 629.914 216.787C627.934 214.752 626.409 212.224 625.34 209.212C624.266 206.2 623.731 202.867 623.731 199.217V175.272H623.735Z" fill="#0A0A0A"/>
<path d="M695.819 222.648C691.616 222.648 687.907 222.148 684.69 221.151C681.473 220.154 678.695 218.844 676.343 217.225C673.995 215.603 672.036 213.734 670.47 211.615C668.903 209.495 667.708 207.355 666.885 205.195L683.579 198.086C684.732 200.915 686.34 202.971 688.4 204.256C690.459 205.545 692.932 206.187 695.819 206.187C698.292 206.187 700.209 205.795 701.567 205.003C702.929 204.214 703.606 203.196 703.606 201.949C703.606 200.535 702.946 199.438 701.626 198.645C700.306 197.857 698.204 197.131 695.322 196.463L687.038 194.72C685.058 194.307 683.04 193.639 680.98 192.726C678.917 191.812 677.024 190.607 675.295 189.109C673.565 187.611 672.162 185.847 671.092 183.811C670.018 181.775 669.484 179.427 669.484 176.765C669.484 173.858 670.123 171.217 671.401 168.848C672.68 166.478 674.43 164.463 676.657 162.803C678.883 161.143 681.519 159.854 684.569 158.94C687.618 158.027 690.956 157.568 694.582 157.568C700.844 157.568 706.246 158.669 710.779 160.872C715.311 163.074 718.733 166.754 721.043 171.906L705.093 178.513C704.019 176.352 702.515 174.771 700.581 173.774C698.643 172.777 696.688 172.277 694.708 172.277C692.565 172.277 690.831 172.652 689.515 173.399C688.195 174.146 687.535 175.063 687.535 176.144C687.535 177.308 688.216 178.242 689.573 178.947C690.935 179.656 692.602 180.257 694.582 180.753L703.978 182.998C710.16 184.495 714.777 186.906 717.826 190.227C720.876 193.552 722.401 197.456 722.401 201.945C722.401 204.686 721.761 207.305 720.483 209.8C719.205 212.295 717.392 214.497 715.044 216.408C712.696 218.322 709.893 219.837 706.635 220.959C703.38 222.085 699.775 222.648 695.819 222.648Z" fill="#0A0A0A"/>
<path d="M743.175 220.65C739.879 220.65 737.076 219.524 734.766 217.267C732.456 215.014 731.303 212.278 731.303 209.053C731.303 205.833 732.456 203.096 734.766 200.839C737.072 198.587 739.875 197.456 743.175 197.456C746.472 197.456 749.275 198.583 751.585 200.839C753.891 203.096 755.048 205.833 755.048 209.053C755.048 212.274 753.891 215.01 751.585 217.267C749.275 219.524 746.472 220.65 743.175 220.65Z" fill="#0A0A0A"/>
<path d="M470.282 265.753V239.673H478.662C479.769 239.673 480.814 239.856 481.787 240.219C482.76 240.582 483.613 241.099 484.335 241.767C485.058 242.434 485.63 243.235 486.052 244.17C486.474 245.104 486.683 246.143 486.683 247.286C486.683 248.429 486.47 249.467 486.052 250.402C485.63 251.336 485.058 252.137 484.335 252.805C483.613 253.472 482.764 253.989 481.787 254.352C480.809 254.715 479.769 254.899 478.662 254.899H472.592V265.753H470.282ZM478.775 252.675C479.569 252.675 480.304 252.538 480.981 252.258C481.653 251.979 482.238 251.599 482.731 251.111C483.224 250.627 483.617 250.056 483.905 249.401C484.193 248.746 484.339 248.041 484.339 247.29C484.339 246.539 484.193 245.826 483.905 245.158C483.617 244.491 483.224 243.919 482.731 243.448C482.238 242.977 481.653 242.597 480.981 242.317C480.304 242.038 479.573 241.9 478.775 241.9H472.596V252.684H478.775V252.675Z" fill="#0A0A0A"/>
<path d="M489.975 265.753V239.673H492.289V265.753H489.975Z" fill="#0A0A0A"/>
<path d="M508.435 262.583H508.289C507.688 263.626 506.848 264.514 505.778 265.24C504.705 265.97 503.46 266.333 502.04 266.333C501.075 266.333 500.185 266.183 499.366 265.878C498.547 265.574 497.837 265.161 497.235 264.639C496.634 264.118 496.162 263.492 495.828 262.762C495.489 262.032 495.322 261.244 495.322 260.393C495.322 259.421 495.523 258.561 495.92 257.806C496.316 257.056 496.859 256.421 497.545 255.913C498.23 255.404 499.028 255.02 499.93 254.765C500.832 254.511 501.789 254.382 502.804 254.382C504.007 254.382 505.093 254.523 506.054 254.799C507.015 255.078 507.813 255.399 508.44 255.762V254.669C508.44 253.868 508.293 253.138 508.005 252.484C507.717 251.829 507.328 251.27 506.848 250.807C506.368 250.344 505.795 249.993 505.131 249.751C504.467 249.509 503.777 249.388 503.055 249.388C501.973 249.388 501.008 249.626 500.164 250.097C499.32 250.569 498.622 251.257 498.067 252.154L496.045 250.877C496.742 249.785 497.695 248.917 498.898 248.274C500.101 247.632 501.463 247.311 502.98 247.311C504.158 247.311 505.219 247.486 506.159 247.841C507.099 248.191 507.905 248.692 508.577 249.334C509.25 249.976 509.768 250.744 510.131 251.628C510.495 252.513 510.675 253.506 510.675 254.599V265.745H508.435V262.583ZM508.435 257.811C507.713 257.373 506.923 257.014 506.071 256.734C505.215 256.455 504.245 256.317 503.163 256.317C502.37 256.317 501.639 256.413 500.978 256.609C500.314 256.805 499.738 257.076 499.245 257.431C498.752 257.781 498.363 258.215 498.088 258.724C497.812 259.233 497.674 259.805 497.674 260.435C497.674 261.019 497.799 261.544 498.054 262.02C498.309 262.491 498.652 262.896 499.082 263.221C499.516 263.551 500.005 263.805 500.544 263.985C501.087 264.168 501.647 264.256 502.223 264.256C503.017 264.256 503.79 264.085 504.538 263.747C505.286 263.409 505.946 262.942 506.526 262.345C507.103 261.749 507.566 261.064 507.917 260.289C508.26 259.513 508.435 258.687 508.435 257.811Z" fill="#0A0A0A"/>
<path d="M515.696 273.621L519.777 264.439L512.333 247.899H514.898L520.897 261.669H520.968L526.712 247.899H529.24L518.077 273.617H515.696V273.621Z" fill="#0A0A0A"/>
<path d="M528.596 268.74L530.438 265.791C530.125 265.695 529.837 265.499 529.57 265.207C529.302 264.915 529.173 264.539 529.173 264.076C529.173 263.542 529.348 263.1 529.695 262.746C530.042 262.391 530.484 262.216 531.015 262.216C531.546 262.216 531.993 262.391 532.352 262.746C532.715 263.096 532.895 263.542 532.895 264.076C532.895 264.418 532.824 264.727 532.678 265.007C532.531 265.286 532.364 265.582 532.172 265.899L529.787 269.508L528.596 268.74Z" fill="#0A0A0A"/>
<path d="M558.796 261.602C557.638 263.012 556.226 264.151 554.551 265.027C552.876 265.903 550.933 266.337 548.715 266.337C546.81 266.337 545.056 265.987 543.439 265.282C541.826 264.577 540.427 263.613 539.249 262.387C538.071 261.16 537.139 259.717 536.467 258.052C535.79 256.388 535.456 254.611 535.456 252.717C535.456 250.823 535.794 249.046 536.467 247.382C537.139 245.717 538.067 244.274 539.249 243.047C540.427 241.821 541.826 240.857 543.439 240.152C545.051 239.447 546.81 239.097 548.715 239.097C550.712 239.097 552.483 239.468 554.025 240.207C555.566 240.949 556.916 241.996 558.073 243.356L556.41 244.958C554.434 242.53 551.869 241.316 548.715 241.316C547.22 241.316 545.812 241.596 544.488 242.155C543.163 242.714 542.006 243.49 541.02 244.487C540.034 245.484 539.249 246.677 538.672 248.074C538.096 249.472 537.803 251.019 537.803 252.717C537.803 254.419 538.092 255.967 538.672 257.36C539.249 258.757 540.034 259.959 541.02 260.964C542.006 261.974 543.163 262.75 544.488 263.296C545.812 263.843 547.22 264.118 548.715 264.118C550.52 264.118 552.112 263.755 553.482 263.025C554.856 262.295 556.072 261.29 557.129 260.001L558.796 261.602Z" fill="#0A0A0A"/>
<path d="M569.49 247.323C570.789 247.323 571.988 247.565 573.083 248.053C574.177 248.541 575.126 249.209 575.919 250.056C576.713 250.907 577.336 251.908 577.778 253.059C578.225 254.215 578.447 255.47 578.447 256.83C578.447 258.19 578.225 259.446 577.778 260.601C577.331 261.757 576.713 262.758 575.919 263.605C575.126 264.456 574.177 265.123 573.083 265.607C571.988 266.091 570.789 266.337 569.49 266.337C568.212 266.337 567.025 266.095 565.931 265.607C564.836 265.123 563.888 264.456 563.094 263.605C562.301 262.754 561.678 261.753 561.235 260.601C560.788 259.45 560.567 258.19 560.567 256.83C560.567 255.47 560.788 254.215 561.235 253.059C561.682 251.908 562.301 250.907 563.094 250.056C563.888 249.205 564.832 248.537 565.931 248.053C567.03 247.565 568.216 247.323 569.49 247.323ZM569.49 264.222C570.359 264.222 571.186 264.047 571.984 263.692C572.778 263.342 573.484 262.841 574.098 262.199C574.712 261.557 575.205 260.781 575.581 259.867C575.953 258.958 576.141 257.944 576.141 256.826C576.141 255.708 575.953 254.694 575.581 253.785C575.209 252.876 574.712 252.1 574.098 251.453C573.484 250.811 572.778 250.31 571.984 249.96C571.19 249.609 570.359 249.43 569.49 249.43C568.621 249.43 567.79 249.605 566.996 249.96C566.202 250.31 565.496 250.811 564.882 251.453C564.268 252.096 563.779 252.876 563.42 253.785C563.057 254.694 562.877 255.708 562.877 256.826C562.877 257.944 563.057 258.958 563.42 259.867C563.779 260.777 564.268 261.557 564.882 262.199C565.496 262.841 566.202 263.342 566.996 263.692C567.794 264.047 568.625 264.222 569.49 264.222Z" fill="#0A0A0A"/>
<path d="M595.758 262.62H595.612C595.324 263.108 594.973 263.576 594.564 264.022C594.154 264.473 593.674 264.865 593.118 265.207C592.563 265.549 591.94 265.82 591.238 266.024C590.541 266.229 589.768 266.333 588.924 266.333C587.792 266.333 586.723 266.095 585.707 265.624C584.696 265.152 583.811 264.493 583.05 263.655C582.29 262.816 581.689 261.815 581.246 260.651C580.799 259.488 580.577 258.211 580.577 256.826C580.577 255.441 580.799 254.169 581.246 253.001C581.693 251.837 582.294 250.832 583.05 249.997C583.811 249.159 584.692 248.504 585.707 248.028C586.718 247.557 587.792 247.319 588.924 247.319C590.612 247.319 592.007 247.682 593.114 248.412C594.221 249.142 595.052 250.001 595.608 250.998H595.754L595.608 248.52V239.668H597.918V265.749H595.75V262.62H595.758ZM589.325 264.222C590.169 264.222 590.979 264.06 591.765 263.73C592.546 263.4 593.235 262.917 593.824 262.274C594.413 261.632 594.885 260.856 595.232 259.942C595.579 259.033 595.754 257.994 595.754 256.826C595.754 255.658 595.579 254.615 595.232 253.693C594.881 252.771 594.413 251.995 593.824 251.361C593.235 250.731 592.546 250.252 591.765 249.922C590.984 249.593 590.169 249.43 589.325 249.43C588.481 249.43 587.671 249.601 586.885 249.939C586.104 250.281 585.415 250.769 584.826 251.416C584.237 252.058 583.765 252.838 583.418 253.747C583.067 254.657 582.896 255.683 582.896 256.826C582.896 257.969 583.071 258.999 583.418 259.921C583.769 260.843 584.237 261.623 584.826 262.253C585.415 262.883 586.104 263.371 586.885 263.709C587.671 264.055 588.481 264.222 589.325 264.222Z" fill="#0A0A0A"/>
<path d="M617.54 261.527C617.227 262.182 616.83 262.804 616.35 263.384C615.869 263.968 615.309 264.477 614.67 264.915C614.031 265.353 613.304 265.699 612.485 265.953C611.667 266.208 610.764 266.337 609.774 266.337C608.496 266.337 607.318 266.099 606.232 265.628C605.15 265.157 604.214 264.493 603.433 263.642C602.651 262.791 602.042 261.79 601.607 260.639C601.173 259.487 600.955 258.215 600.955 256.834C600.955 255.545 601.156 254.327 601.553 253.172C601.95 252.02 602.522 251.011 603.27 250.147C604.017 249.284 604.92 248.6 605.981 248.091C607.042 247.582 608.233 247.327 609.557 247.327C610.831 247.327 611.984 247.553 613.008 248.003C614.031 248.454 614.904 249.084 615.627 249.897C616.35 250.711 616.909 251.687 617.306 252.83C617.703 253.973 617.904 255.232 617.904 256.617C617.904 256.688 617.904 256.763 617.904 256.834C617.879 256.905 617.866 256.968 617.866 257.018V257.235H603.307C603.332 258.474 603.55 259.529 603.959 260.405C604.368 261.281 604.886 262.003 605.513 262.574C606.14 263.146 606.837 263.563 607.61 263.83C608.379 264.097 609.127 264.231 609.849 264.231C611.341 264.231 612.523 263.884 613.388 263.192C614.257 262.499 614.979 261.619 615.556 260.551L617.54 261.527ZM615.481 255.262C615.456 254.678 615.334 254.048 615.117 253.368C614.9 252.688 614.562 252.058 614.106 251.474C613.647 250.89 613.041 250.406 612.281 250.018C611.52 249.63 610.589 249.434 609.482 249.434C608.759 249.434 608.061 249.563 607.385 249.818C606.708 250.072 606.102 250.444 605.559 250.927C605.016 251.416 604.561 252.02 604.185 252.75C603.813 253.48 603.566 254.315 603.445 255.266H615.481V255.262Z" fill="#0A0A0A"/>
<path d="M620.648 268.74L622.491 265.791C622.177 265.695 621.889 265.499 621.622 265.207C621.354 264.915 621.225 264.539 621.225 264.076C621.225 263.542 621.4 263.1 621.747 262.746C622.098 262.395 622.537 262.216 623.067 262.216C623.598 262.216 624.045 262.391 624.404 262.746C624.767 263.096 624.947 263.542 624.947 264.076C624.947 264.418 624.876 264.727 624.73 265.007C624.584 265.286 624.416 265.582 624.224 265.899L621.839 269.508L620.648 268.74Z" fill="#0A0A0A"/>
<path d="M629.571 239.673H631.886V265.753H629.571V239.673Z" fill="#0A0A0A"/>
<path d="M639 251.257H639.146C639.435 250.723 639.786 250.218 640.195 249.747C640.604 249.276 641.081 248.854 641.624 248.491C642.167 248.128 642.76 247.84 643.412 247.636C644.063 247.432 644.761 247.327 645.509 247.327C646.591 247.327 647.543 247.503 648.362 247.857C649.181 248.208 649.862 248.708 650.405 249.351C650.948 249.993 651.349 250.761 651.616 251.645C651.88 252.529 652.013 253.51 652.013 254.578V265.762H649.699V254.978C649.699 253.059 649.277 251.657 648.433 250.769C647.589 249.885 646.411 249.438 644.89 249.438C644.047 249.438 643.278 249.626 642.576 250.001C641.878 250.377 641.277 250.89 640.771 251.532C640.266 252.175 639.869 252.913 639.581 253.735C639.293 254.561 639.146 255.424 639.146 256.321V265.757H636.832V247.907H639V251.257Z" fill="#0A0A0A"/>
<path d="M658.33 251.257H658.476C658.764 250.723 659.115 250.218 659.524 249.747C659.934 249.276 660.41 248.854 660.953 248.491C661.496 248.128 662.089 247.84 662.741 247.636C663.393 247.432 664.09 247.327 664.838 247.327C665.92 247.327 666.873 247.503 667.692 247.857C668.51 248.208 669.191 248.708 669.734 249.351C670.277 249.993 670.678 250.761 670.946 251.645C671.209 252.529 671.343 253.51 671.343 254.578V265.762H669.028V254.978C669.028 253.059 668.606 251.657 667.763 250.769C666.919 249.885 665.741 249.438 664.22 249.438C663.376 249.438 662.607 249.626 661.906 250.001C661.208 250.377 660.606 250.89 660.101 251.532C659.595 252.175 659.199 252.913 658.91 253.735C658.622 254.561 658.476 255.424 658.476 256.321V265.757H656.161V247.907H658.33V251.257Z" fill="#0A0A0A"/>
<path d="M683.328 247.323C684.627 247.323 685.826 247.565 686.921 248.053C688.015 248.541 688.964 249.209 689.757 250.056C690.551 250.907 691.173 251.908 691.616 253.059C692.063 254.215 692.285 255.47 692.285 256.83C692.285 258.19 692.063 259.446 691.616 260.601C691.169 261.757 690.551 262.758 689.757 263.605C688.964 264.456 688.015 265.123 686.921 265.607C685.826 266.091 684.627 266.337 683.328 266.337C682.05 266.337 680.863 266.095 679.769 265.607C678.674 265.123 677.726 264.456 676.932 263.605C676.138 262.754 675.516 261.753 675.073 260.601C674.626 259.45 674.405 258.19 674.405 256.83C674.405 255.47 674.626 254.215 675.073 253.059C675.52 251.908 676.138 250.907 676.932 250.056C677.726 249.205 678.67 248.537 679.769 248.053C680.867 247.565 682.054 247.323 683.328 247.323ZM683.328 264.222C684.193 264.222 685.024 264.047 685.822 263.692C686.616 263.342 687.322 262.841 687.936 262.199C688.55 261.557 689.043 260.781 689.419 259.867C689.791 258.958 689.979 257.944 689.979 256.826C689.979 255.708 689.791 254.694 689.419 253.785C689.047 252.876 688.55 252.1 687.936 251.453C687.322 250.811 686.616 250.31 685.822 249.96C685.028 249.609 684.197 249.43 683.328 249.43C682.459 249.43 681.628 249.605 680.834 249.96C680.04 250.31 679.334 250.811 678.72 251.453C678.106 252.096 677.617 252.876 677.258 253.785C676.895 254.694 676.715 255.708 676.715 256.826C676.715 257.944 676.895 258.958 677.258 259.867C677.617 260.777 678.106 261.557 678.72 262.199C679.334 262.841 680.04 263.342 680.834 263.692C681.632 264.047 682.463 264.222 683.328 264.222Z" fill="#0A0A0A"/>
<path d="M693.154 247.903H695.61L701.642 263.129H701.713L707.783 247.903H710.202L702.904 265.753H700.377L693.154 247.903Z" fill="#0A0A0A"/>
<path d="M724.188 262.583H724.042C723.441 263.626 722.601 264.514 721.532 265.24C720.458 265.97 719.213 266.333 717.793 266.333C716.828 266.333 715.938 266.183 715.119 265.878C714.3 265.574 713.59 265.161 712.988 264.639C712.387 264.118 711.915 263.492 711.581 262.762C711.242 262.032 711.075 261.244 711.075 260.393C711.075 259.421 711.276 258.561 711.673 257.806C712.069 257.056 712.613 256.421 713.298 255.913C713.983 255.404 714.781 255.02 715.683 254.765C716.585 254.511 717.542 254.382 718.557 254.382C719.76 254.382 720.846 254.523 721.807 254.799C722.768 255.078 723.566 255.399 724.193 255.762V254.669C724.193 253.868 724.046 253.138 723.758 252.484C723.47 251.829 723.081 251.27 722.601 250.807C722.121 250.344 721.548 249.993 720.884 249.751C720.22 249.509 719.531 249.388 718.808 249.388C717.726 249.388 716.761 249.626 715.917 250.097C715.073 250.569 714.375 251.257 713.82 252.154L711.798 250.877C712.496 249.785 713.448 248.917 714.651 248.274C715.854 247.632 717.216 247.311 718.733 247.311C719.911 247.311 720.972 247.486 721.912 247.841C722.852 248.191 723.658 248.692 724.331 249.334C725.003 249.976 725.521 250.744 725.885 251.628C726.248 252.513 726.428 253.506 726.428 254.599V265.745H724.188V262.583ZM724.188 257.811C723.466 257.373 722.676 257.014 721.824 256.734C720.968 256.455 719.998 256.317 718.916 256.317C718.123 256.317 717.392 256.413 716.732 256.609C716.067 256.805 715.491 257.076 714.998 257.431C714.505 257.781 714.116 258.215 713.841 258.724C713.565 259.233 713.427 259.805 713.427 260.435C713.427 261.019 713.552 261.544 713.807 262.02C714.062 262.491 714.405 262.896 714.835 263.221C715.269 263.551 715.758 263.805 716.297 263.985C716.84 264.168 717.4 264.256 717.976 264.256C718.77 264.256 719.543 264.085 720.291 263.747C721.039 263.409 721.699 262.942 722.279 262.345C722.856 261.749 723.32 261.064 723.67 260.289C724.013 259.513 724.188 258.687 724.188 257.811Z" fill="#0A0A0A"/>
<path d="M732.063 250.018H728.846V247.903H732.063V242.438H734.373V247.903H738.781V250.018H734.373V260.989C734.373 262.057 734.628 262.85 735.134 263.371C735.614 263.918 736.195 264.189 736.867 264.189C737.227 264.189 737.536 264.16 737.791 264.097C738.041 264.039 738.325 263.934 738.639 263.788L739.361 265.791C738.952 265.987 738.534 266.124 738.116 266.208C737.694 266.291 737.193 266.337 736.617 266.337C735.363 266.337 734.307 265.928 733.438 265.115C733.003 264.694 732.665 264.18 732.427 263.576C732.184 262.971 732.067 262.232 732.067 261.369V250.018H732.063Z" fill="#0A0A0A"/>
<path d="M757.609 261.527C757.295 262.182 756.899 262.804 756.418 263.384C755.938 263.968 755.378 264.477 754.739 264.915C754.1 265.353 753.373 265.699 752.554 265.953C751.735 266.208 750.833 266.337 749.843 266.337C748.564 266.337 747.386 266.099 746.3 265.628C745.218 265.157 744.282 264.493 743.501 263.642C742.72 262.791 742.11 261.79 741.676 260.639C741.241 259.487 741.024 258.215 741.024 256.834C741.024 255.545 741.224 254.327 741.621 253.172C742.018 252.02 742.591 251.011 743.338 250.147C744.086 249.284 744.988 248.6 746.05 248.091C747.111 247.582 748.301 247.327 749.626 247.327C750.9 247.327 752.053 247.553 753.076 248.003C754.1 248.454 754.973 249.084 755.695 249.897C756.418 250.711 756.978 251.687 757.375 252.83C757.772 253.973 757.972 255.232 757.972 256.617C757.972 256.688 757.972 256.763 757.972 256.834C757.947 256.905 757.935 256.968 757.935 257.018V257.235H743.376C743.401 258.474 743.618 259.529 744.028 260.405C744.437 261.281 744.955 262.003 745.582 262.574C746.208 263.146 746.906 263.563 747.679 263.83C748.447 264.097 749.195 264.231 749.918 264.231C751.409 264.231 752.592 263.884 753.456 263.192C754.325 262.499 755.048 261.619 755.624 260.551L757.609 261.527ZM755.549 255.262C755.524 254.678 755.403 254.048 755.186 253.368C754.969 252.688 754.63 252.058 754.175 251.474C753.715 250.89 753.11 250.406 752.349 250.018C751.589 249.63 750.657 249.434 749.55 249.434C748.828 249.434 748.13 249.563 747.453 249.818C746.776 250.072 746.171 250.444 745.628 250.927C745.085 251.416 744.629 252.02 744.253 252.75C743.881 253.48 743.635 254.315 743.514 255.266H755.549V255.262Z" fill="#0A0A0A"/>
<path d="M166.316 0H120.359C116.833 0 113.972 2.85752 113.972 6.37831V72.5058L67.9602 26.5645C65.4578 24.0657 61.4056 24.0657 58.9033 26.5645L26.4146 59.0108C23.9122 61.5096 23.9122 65.556 26.4146 68.0548L76.591 118.164H6.38745C2.86161 118.164 0 121.017 0 124.563V170.458C0 173.979 2.86161 176.836 6.38745 176.836H75.4714L26.4146 225.827C23.9122 228.326 23.9122 232.372 26.4146 234.871L58.9033 267.313C61.4056 269.812 65.4578 269.812 67.9602 267.313L113.967 221.372V288.618C113.967 292.142 116.829 294.996 120.355 294.996H166.316C169.867 294.996 172.729 292.138 172.729 288.618V176.503V163.008V162.72V131.158V130.874V118.497V6.37831C172.729 2.85752 169.867 0 166.316 0Z" fill="#2201FF"/>
<path d="M416.15 136.961C464.613 83.0182 418.652 0 338.832 0H210.013C197.159 0 186.736 10.408 186.736 23.2439V271.756C186.736 284.592 197.159 295 210.013 295H334.241C437.869 295 483.007 186.686 416.15 136.961ZM346.117 62.6067C362.084 62.6067 375.026 75.5302 375.026 91.4739C375.026 107.418 362.084 120.341 346.117 120.341C330.151 120.341 317.209 107.418 317.209 91.4739C317.209 75.5302 330.151 62.6067 346.117 62.6067ZM258.427 62.6067C274.393 62.6067 287.335 75.5302 287.335 91.4739C287.335 107.418 274.393 120.341 258.427 120.341C242.46 120.341 229.518 107.418 229.518 91.4739C229.518 75.5302 242.46 62.6067 258.427 62.6067ZM306.055 244.09C305.792 244.09 305.52 244.094 305.257 244.094C257.015 244.094 226.13 214.952 217.779 205.979L241.244 184.203C247.356 190.774 269.965 212.107 305.257 212.107C305.453 212.107 305.645 212.107 305.838 212.107C340.824 211.873 363.233 190.694 369.269 184.208L392.734 205.979C384.496 214.839 353.879 243.777 306.055 244.09Z" fill="#2201FF"/>
</g>
<defs>
<clipPath id="clip0_3325_6">
<rect width="759" height="295" fill="white"/>
</clipPath>
</defs>
</svg>
