<svg width="518" height="146" viewBox="0 0 518 146" fill="none" xmlns="http://www.w3.org/2000/svg">
<g clip-path="url(#clip0_3782_254)">
<path d="M252.6 82H207.2C205.2 82.2 203.6 82.7 202.5 83.5V70.2H251V59.1H207.1C205.2 59.3 203.7 59.8 202.5 60.6V53.6C202.5 51.6 204.2 49.9 206.2 49.9H252.5V38.9H206.2C198 38.9 191.3 45.5 191.3 53.7V78.4C191.3 86.6 198 93.2 206.2 93.2H252.5V82H252.6Z" fill="#063855"/>
<path d="M395.6 75.6H434.8V93.1H446V55.3C446 46.3 438.7 38.9 429.6 38.9H400.8C391.8 38.9 384.4 46.2 384.4 55.3V93.2H395.6V75.6ZM395.6 55.3C395.6 52.4 397.9 50.1 400.8 50.1H429.6C432.5 50.1 434.8 52.4 434.8 55.3V64.5H434.5C413.4 64.5 401.6 64.5 400.5 64.5C398.5 64.6 396.8 65.2 395.7 66.1V55.3H395.6Z" fill="#063855"/>
<path d="M305.6 93.1C313.8 93.1 320.5 86.4 320.5 78.1V75.4C320.5 67.1 313.8 60.4 305.6 60.4H274.1C272.1 60.4 270.4 58.7 270.4 56.6V53.9C270.4 51.8 272.1 50.1 274.1 50.1H305.6C307.6 50.1 309.3 51.8 309.3 53.9V58.6H320.5V53.9C320.5 45.6 313.8 38.9 305.6 38.9H274.1C265.9 38.9 259.2 45.6 259.2 53.9V56.6C259.2 64.9 265.9 71.6 274.1 71.6H305.6C307.6 71.6 309.3 73.3 309.3 75.4V78.1C309.3 80.2 307.6 81.9 305.6 81.9H274.1C272.1 81.9 270.4 80.2 270.4 78.1V73.4H259.2V78.1C259.2 86.4 265.9 93.1 274.1 93.1H305.6Z" fill="#063855"/>
<path d="M379.5 81.9001H344.3C342.3 82.1001 340.7 82.6001 339.6 83.4001L339.7 38.8H328.5V78.2C328.5 86.4 335.2 93.1 343.4 93.1H379.5V81.9001Z" fill="#063855"/>
<path d="M516.5 93.2V38.9H505.3V58.9H471.1C469.2 59.1 467.6 59.6 466.5 60.4V38.9H455.3V93.2H466.5V70.1H505.3V93.2H516.5Z" fill="#063855"/>
<path d="M298.2 109.1C297.7 108.8 297 108.6 296.2 108.6C295.6 108.6 295.1 108.7 294.5 109C294 109.2 293.5 109.5 293.2 109.9V108.8H290.7V119.3H293.2V113C293.2 112.7 293.3 112.4 293.4 112.2C293.5 111.9 293.7 111.7 293.9 111.5C294.1 111.3 294.4 111.2 294.6 111C294.9 110.9 295.2 110.8 295.6 110.8C296 110.8 296.4 110.8 296.6 111C296.9 111.1 297.1 111.4 297.2 111.7C297.3 112 297.4 112.5 297.4 113V119.2H299.9V113C299.9 112 299.8 111.2 299.5 110.6C299.2 110 298.7 109.5 298.2 109.1Z" fill="#063855"/>
<path d="M284.5 108.9H282V119.4H284.5V108.9Z" fill="#063855"/>
<path d="M283.2 104.2C282.7 104.2 282.3 104.3 282.1 104.6C281.8 104.9 281.7 105.2 281.7 105.7C281.7 106.2 281.8 106.5 282.1 106.8C282.4 107.1 282.8 107.2 283.2 107.2C283.7 107.2 284.1 107.1 284.3 106.8C284.6 106.5 284.7 106.2 284.7 105.7C284.7 105.2 284.6 104.9 284.3 104.6C284.1 104.3 283.7 104.2 283.2 104.2Z" fill="#063855"/>
<path d="M309.4 106.3H306.9V108.9H304.9V111.3H306.9V119.4H309.4V111.3H311.7V108.9H309.4V106.3Z" fill="#063855"/>
<path d="M195.5 119.4H198.1V113.7H203.8V111.2H198.1V108H204.7V105.5H195.5V119.4Z" fill="#063855"/>
<path d="M231.3 108.7C230.6 108.6 229.8 108.7 229.2 109C228.7 109.2 228.3 109.6 228 110C228 110 228 110.1 227.9 110.1V108.9H225.4V119.4H227.9V113.6C227.9 113.3 228 113 228.1 112.7C228.2 112.4 228.4 112.2 228.6 112C228.8 111.8 229.1 111.6 229.3 111.5C229.7 111.3 230.2 111.3 230.7 111.4C230.9 111.4 231 111.5 231.2 111.6L231.5 111.7L232.1 109.1L231.9 109C231.7 108.8 231.5 108.8 231.3 108.7Z" fill="#063855"/>
<path d="M217.4 109.4C216.6 108.9 215.7 108.7 214.7 108.7C213.7 108.7 212.8 108.9 212 109.4C211.2 109.9 210.6 110.5 210.1 111.3C209.6 112.1 209.4 113.1 209.4 114.1C209.4 115.1 209.6 116.1 210.1 116.9C210.6 117.7 211.2 118.4 212 118.8C212.8 119.3 213.7 119.5 214.7 119.5C215.7 119.5 216.6 119.3 217.4 118.8C218.2 118.3 218.8 117.7 219.3 116.9C219.8 116.1 220 115.1 220 114.1C220 113.1 219.8 112.1 219.3 111.3C218.8 110.5 218.2 109.8 217.4 109.4ZM217.1 115.7C216.9 116.2 216.5 116.5 216.1 116.8C215.3 117.3 214 117.3 213.2 116.8C212.8 116.5 212.4 116.2 212.2 115.7C212 115.2 211.8 114.7 211.8 114.1C211.8 113.5 211.9 113 212.2 112.5C212.4 112 212.8 111.7 213.2 111.4C213.6 111.1 214.1 111 214.7 111C215.2 111 215.7 111.1 216.2 111.4C216.6 111.7 217 112 217.2 112.5C217.4 113 217.6 113.5 217.6 114.1C217.5 114.7 217.4 115.2 217.1 115.7Z" fill="#063855"/>
<path d="M503.7 110.1C503.3 109.6 502.8 109.3 502.2 109C500.9 108.4 499.4 108.5 498.1 109C497.4 109.3 496.9 109.7 496.4 110.2C495.9 110.7 495.6 111.3 495.3 112C495 112.7 494.9 113.4 494.9 114.2C494.9 115.2 495.1 116.2 495.6 117C496.1 117.8 496.7 118.4 497.6 118.9C498.4 119.4 499.4 119.6 500.5 119.6C501 119.6 501.5 119.5 502 119.4C502.5 119.3 503 119.1 503.4 118.8C503.9 118.6 504.3 118.3 504.6 118L504.8 117.8L503.5 116L503.3 116.2C502.8 116.6 502.4 116.9 502 117C501.6 117.2 501.2 117.2 500.7 117.2C500 117.2 499.5 117.1 499 116.8C498.5 116.5 498.1 116.2 497.9 115.7C497.8 115.4 497.7 115.1 497.6 114.8H505.2V113.7C505.2 113 505.1 112.3 504.9 111.7C504.4 111.1 504.1 110.6 503.7 110.1ZM497.5 112.8C497.5 112.6 497.6 112.5 497.7 112.4C497.9 111.9 498.2 111.6 498.7 111.4C499.1 111.2 499.7 111 500.3 111C500.7 111 501 111.1 501.4 111.3C501.7 111.5 502 111.7 502.2 112C502.4 112.3 502.5 112.5 502.6 112.8H497.5Z" fill="#063855"/>
<path d="M517 114.2C516.7 113.9 516.4 113.7 515.9 113.5C515.5 113.3 514.9 113.1 514.3 112.9C513.9 112.8 513.5 112.7 513.3 112.6C513 112.5 512.8 112.4 512.7 112.3C512.6 112.2 512.5 112.1 512.5 112C512.4 111.9 512.4 111.8 512.4 111.6C512.4 111.4 512.4 111.3 512.5 111.2C512.6 111.1 512.6 111 512.7 110.9C512.8 110.8 513 110.8 513.2 110.7C513.6 110.6 514 110.6 514.6 110.8C514.9 110.9 515.1 111 515.4 111.2C515.7 111.4 515.9 111.6 516.1 111.8L516.3 112L517.8 110.4L517.7 110.2C517.4 109.8 517.1 109.5 516.6 109.3C516.2 109 515.7 108.8 515.3 108.7C514.3 108.4 513.2 108.4 512.4 108.7C511.9 108.8 511.5 109.1 511.2 109.3C510.8 109.6 510.6 109.9 510.4 110.3C510.2 110.7 510.1 111.1 510.1 111.6C510.1 112 510.1 112.3 510.2 112.6C510.3 112.9 510.5 113.2 510.7 113.5C511 113.8 511.4 114.1 511.9 114.4C512.4 114.6 513 114.9 513.8 115.1C514.2 115.2 514.6 115.3 514.8 115.4C515.1 115.5 515.2 115.6 515.3 115.7C515.5 115.9 515.6 116 515.6 116.3C515.6 116.5 515.6 116.6 515.5 116.7C515.4 116.8 515.4 116.9 515.2 117C515.1 117.1 514.9 117.2 514.8 117.2C514.6 117.3 514.4 117.3 514.2 117.3C513.7 117.3 513.2 117.2 512.8 117C512.4 116.8 512 116.5 511.6 116.1L511.4 115.9L509.7 117.4L509.8 117.6C510.3 118.2 510.9 118.7 511.6 119C512.3 119.3 513.1 119.5 514 119.5C514.7 119.5 515.4 119.4 515.9 119.1C516.5 118.8 517 118.4 517.3 118C517.7 117.5 517.8 116.9 517.8 116.3C517.8 115.9 517.7 115.5 517.6 115.2C517.5 114.8 517.3 114.5 517 114.2Z" fill="#063855"/>
<path d="M273.2 109.9C273.1 109.8 273 109.7 272.9 109.6C272.6 109.3 272.1 109.1 271.7 108.9C271.2 108.7 270.7 108.7 270.2 108.7C269.3 108.7 268.4 108.9 267.7 109.4C267 109.9 266.4 110.5 265.9 111.3C265.5 112.1 265.3 113.1 265.3 114.1C265.3 115.1 265.5 116.1 265.9 116.9C266.3 117.7 266.9 118.4 267.6 118.9C268.3 119.4 269.1 119.6 270 119.6C270.5 119.6 271 119.5 271.5 119.4C272 119.2 272.4 119 272.8 118.8C273 118.7 273.1 118.5 273.3 118.4V119.5H275.8V109H273.3V109.9H273.2ZM272.9 115.7C272.7 116.2 272.3 116.5 271.9 116.8C271.5 117.1 271 117.2 270.5 117.2C270 117.2 269.5 117.1 269.1 116.8C268.7 116.5 268.4 116.2 268.1 115.7C267.9 115.2 267.7 114.7 267.7 114.1C267.7 113.5 267.8 113 268.1 112.5C268.3 112 268.7 111.7 269.1 111.4C269.5 111.1 270 111 270.5 111C271.1 111 271.5 111.1 271.9 111.4C272.3 111.7 272.6 112 272.9 112.5C273.1 113 273.3 113.5 273.3 114.1C273.3 114.7 273.2 115.2 272.9 115.7Z" fill="#063855"/>
<path d="M252.9 112.4L248.7 105.5H246.3V119.3H248.9V113.6C248.9 112.4 248.9 111.3 248.8 110.4C248.8 110.3 248.8 110.3 248.8 110.2L252.1 115.5H253.6L257 110.2C257 110.3 257 110.4 257 110.5C256.9 111.4 256.9 112.5 256.9 113.6V119.3H259.5V105.5H257.2L252.9 112.4Z" fill="#063855"/>
<path d="M353.9 109.9C353.8 109.8 353.7 109.7 353.6 109.6C353.3 109.3 352.8 109.1 352.4 108.9C351.9 108.7 351.4 108.7 350.9 108.7C350 108.7 349.1 108.9 348.4 109.4C347.7 109.9 347.1 110.5 346.6 111.3C346.2 112.1 346 113.1 346 114.1C346 115.1 346.2 116.1 346.6 116.9C347 117.7 347.6 118.4 348.3 118.9C349 119.4 349.8 119.6 350.7 119.6C351.2 119.6 351.7 119.5 352.2 119.4C352.7 119.2 353.1 119 353.5 118.8C353.7 118.7 353.8 118.5 354 118.4V119.5H356.5V109H354V109.9H353.9ZM353.6 115.7C353.4 116.2 353 116.5 352.6 116.8C351.8 117.3 350.6 117.3 349.8 116.8C349.4 116.5 349.1 116.2 348.8 115.7C348.6 115.2 348.4 114.7 348.4 114.1C348.4 113.5 348.5 113 348.8 112.5C349 112 349.4 111.7 349.8 111.4C350.2 111.1 350.7 111 351.2 111C351.7 111 352.2 111.1 352.6 111.4C353 111.7 353.3 112 353.6 112.5C353.8 113 354 113.5 354 114.1C353.9 114.7 353.8 115.2 353.6 115.7Z" fill="#063855"/>
<path d="M324.8 110.1C324.4 109.6 323.9 109.3 323.3 109C322 108.4 320.5 108.5 319.2 109C318.5 109.3 318 109.7 317.5 110.2C317 110.7 316.7 111.3 316.4 112C316.1 112.7 316 113.4 316 114.2C316 115.2 316.2 116.2 316.7 117C317.2 117.8 317.8 118.4 318.7 118.9C319.5 119.4 320.5 119.6 321.6 119.6C322.1 119.6 322.6 119.5 323.1 119.4C323.6 119.3 324.1 119.1 324.5 118.8C325 118.6 325.4 118.3 325.7 118L325.9 117.8L324.6 116L324.4 116.2C323.9 116.6 323.5 116.9 323.1 117C322.7 117.2 322.3 117.2 321.8 117.2C321.1 117.2 320.6 117.1 320.1 116.8C319.6 116.5 319.2 116.2 319 115.7C318.9 115.4 318.8 115.1 318.7 114.8H326.3V113.7C326.3 113 326.2 112.3 326 111.7C325.6 111.1 325.3 110.6 324.8 110.1ZM318.7 112.8C318.7 112.6 318.8 112.5 318.9 112.4C319.1 111.9 319.4 111.6 319.9 111.4C320.3 111.2 320.9 111 321.5 111C321.9 111 322.2 111.1 322.6 111.3C322.9 111.5 323.2 111.7 323.4 112C323.6 112.3 323.7 112.5 323.8 112.8H318.7Z" fill="#063855"/>
<path d="M438.9 110.1C438.5 109.7 438 109.3 437.4 109C436.1 108.4 434.6 108.5 433.3 109C432.6 109.3 432.1 109.7 431.6 110.2C431.1 110.7 430.8 111.3 430.5 112C430.2 112.7 430.1 113.4 430.1 114.2C430.1 115.2 430.3 116.2 430.8 117C431.3 117.8 431.9 118.4 432.8 118.9C433.6 119.4 434.6 119.6 435.7 119.6C436.2 119.6 436.7 119.5 437.2 119.4C437.7 119.3 438.2 119.1 438.6 118.8C439.1 118.6 439.5 118.3 439.8 118L440 117.8L438.7 116L438.5 116.2C438 116.6 437.6 116.9 437.2 117C436.8 117.2 436.4 117.2 435.9 117.2C435.2 117.2 434.7 117.1 434.2 116.8C433.7 116.5 433.3 116.2 433.1 115.7C433 115.4 432.9 115.1 432.8 114.8H440.4V113.7C440.4 113 440.3 112.3 440.1 111.7C439.7 111.1 439.4 110.6 438.9 110.1ZM432.8 112.8C432.8 112.6 432.9 112.5 433 112.4C433.2 111.9 433.5 111.6 434 111.4C434.4 111.2 435 111 435.6 111C436 111 436.3 111.1 436.7 111.3C437 111.5 437.3 111.7 437.5 112C437.7 112.3 437.8 112.5 437.9 112.8H432.8Z" fill="#063855"/>
<path d="M423.9 112.6C423.5 112.3 423 112 422.4 111.7C421.8 111.5 421.2 111.3 420.5 111.1C420 111 419.6 110.9 419.3 110.8C419 110.7 418.7 110.5 418.5 110.4C418.3 110.3 418.2 110.1 418.1 109.9C418 109.7 418 109.5 418 109.3C418 109 418.1 108.7 418.3 108.5C418.5 108.3 418.7 108.1 419.1 107.9C419.7 107.6 420.7 107.6 421.4 107.9C421.7 108 422.1 108.2 422.4 108.5C422.7 108.8 423 109.1 423.2 109.5L423.4 109.8L425.2 108L425.1 107.8C424.8 107.3 424.4 106.8 423.9 106.4C423.4 106 422.9 105.8 422.3 105.6C421.1 105.2 419.7 105.2 418.5 105.6C417.9 105.8 417.4 106.1 417 106.4C416.6 106.8 416.2 107.2 416 107.7C415.7 108.2 415.6 108.7 415.6 109.3C415.6 109.9 415.7 110.4 415.9 110.9C416.1 111.4 416.3 111.8 416.7 112.2C417.1 112.6 417.5 112.9 418 113.1C418.5 113.3 419.1 113.5 419.8 113.7C420.2 113.8 420.6 113.9 420.9 114C421.2 114.1 421.5 114.2 421.7 114.3C421.9 114.4 422.1 114.6 422.3 114.7C422.4 114.8 422.5 115 422.6 115.2C422.7 115.4 422.7 115.6 422.7 115.8C422.7 116.1 422.6 116.3 422.4 116.5C422.2 116.7 421.9 116.9 421.6 117.1C421.2 117.2 420.8 117.3 420.4 117.3C419.7 117.3 419 117.1 418.5 116.8C418 116.5 417.4 115.9 416.8 115L416.6 114.7L414.8 116.7L414.9 116.9C415.3 117.5 415.8 118 416.3 118.4C416.8 118.8 417.4 119.1 418.1 119.3C418.7 119.5 419.4 119.6 420.2 119.6C421.2 119.6 422.1 119.4 422.9 119.1C423.7 118.7 424.3 118.2 424.7 117.6C425.1 116.9 425.3 116.1 425.3 115.3C425.3 114.8 425.2 114.3 425 113.9C424.6 113.3 424.3 112.9 423.9 112.6Z" fill="#063855"/>
<path d="M451.6 108.7C450.9 108.6 450.1 108.6 449.5 109C449 109.2 448.6 109.6 448.3 110C448.3 110 448.3 110.1 448.2 110.1V108.9H445.7V119.4H448.2V113.6C448.2 113.3 448.3 113 448.4 112.7C448.5 112.4 448.7 112.2 448.9 112C449.1 111.8 449.4 111.6 449.6 111.5C450 111.3 450.5 111.3 451 111.4C451.2 111.4 451.3 111.5 451.5 111.6L451.8 111.7L452.4 109.1L452.2 109C452 108.8 451.8 108.8 451.6 108.7Z" fill="#063855"/>
<path d="M399.4 110.1C399 109.6 398.4 109.3 397.9 109C396.6 108.4 395.1 108.5 393.8 109C393.1 109.3 392.6 109.7 392.1 110.2C391.6 110.7 391.3 111.3 391 112C390.7 112.7 390.6 113.4 390.6 114.2C390.6 115.2 390.8 116.2 391.3 117C391.8 117.8 392.4 118.4 393.3 118.9C394.1 119.4 395.1 119.6 396.2 119.6C396.7 119.6 397.2 119.5 397.7 119.4C398.2 119.3 398.7 119.1 399.1 118.8C399.6 118.6 400 118.3 400.3 118L400.5 117.8L399.2 116L399 116.2C398.5 116.6 398.1 116.9 397.7 117C397.3 117.2 396.9 117.2 396.4 117.2C395.7 117.2 395.2 117.1 394.7 116.8C394.2 116.5 393.8 116.2 393.6 115.7C393.5 115.4 393.4 115.1 393.3 114.8H400.9V113.7C400.9 113 400.8 112.3 400.6 111.7C400.2 111.1 399.9 110.6 399.4 110.1ZM393.3 112.8C393.3 112.6 393.4 112.5 393.5 112.4C393.7 112 394 111.6 394.5 111.4C394.9 111.2 395.5 111 396.1 111C396.5 111 396.9 111.1 397.2 111.3C397.5 111.5 397.8 111.7 398 112C398.2 112.3 398.3 112.5 398.4 112.8H393.3Z" fill="#063855"/>
<path d="M462.3 115.6L459.5 108.9H456.9L461.3 119.4H463.1L467.7 108.9H465.1L462.3 115.6Z" fill="#063855"/>
<path d="M474.1 104.2C473.6 104.2 473.2 104.3 473 104.6C472.7 104.9 472.6 105.2 472.6 105.7C472.6 106.2 472.7 106.5 473 106.8C473.3 107.1 473.7 107.2 474.1 107.2C474.6 107.2 475 107.1 475.2 106.8C475.5 106.5 475.6 106.2 475.6 105.7C475.6 105.2 475.5 104.9 475.2 104.6C475 104.3 474.6 104.2 474.1 104.2Z" fill="#063855"/>
<path d="M488.9 115.8C488.6 116.1 488.4 116.4 488.1 116.6C487.8 116.8 487.5 117 487.2 117.1C486.9 117.2 486.6 117.3 486.3 117.3C485.8 117.3 485.3 117.2 484.8 116.9C484.4 116.6 484 116.2 483.7 115.8C483.4 115.3 483.3 114.8 483.3 114.2C483.3 113.6 483.4 113.1 483.7 112.6C484 112.1 484.3 111.7 484.7 111.5C485.4 111.1 486.2 110.9 487.1 111.3C487.4 111.4 487.8 111.6 488 111.8C488.3 112 488.5 112.3 488.7 112.5L488.9 112.8L490.3 111.1L490.2 110.9C489.8 110.2 489.2 109.7 488.4 109.3C487.6 108.9 486.8 108.7 485.9 108.7C484.9 108.7 484 108.9 483.3 109.4C482.5 109.9 481.9 110.5 481.5 111.4C481.1 112.2 480.8 113.1 480.8 114.2C480.8 115.3 481 116.1 481.5 117C481.9 117.8 482.6 118.5 483.3 119C484.1 119.5 484.9 119.7 485.9 119.7C486.7 119.7 487.6 119.5 488.4 119.1C489.2 118.7 489.8 118.2 490.2 117.6L490.3 117.4L488.9 115.7V115.8Z" fill="#063855"/>
<path d="M475.4 108.9H472.9V119.4H475.4V108.9Z" fill="#063855"/>
<path d="M339 109.1C338.5 108.8 337.8 108.6 337 108.6C336.4 108.6 335.9 108.7 335.3 109C334.8 109.2 334.3 109.5 334 109.9V108.8H331.5V119.3H334V113C334 112.7 334.1 112.4 334.2 112.2C334.3 111.9 334.5 111.7 334.7 111.5C334.9 111.3 335.2 111.2 335.4 111C335.7 110.9 336 110.8 336.4 110.8C336.8 110.8 337.2 110.8 337.4 111C337.7 111.1 337.9 111.4 338 111.7C338.1 112 338.2 112.5 338.2 113V119.2H340.7V113C340.7 112 340.6 111.2 340.3 110.6C340 110 339.6 109.5 339 109.1Z" fill="#063855"/>
<path d="M384.6 115.8C384.4 116.1 384.1 116.4 383.8 116.6C383.5 116.8 383.2 117 382.9 117.1C382.1 117.4 381.2 117.3 380.5 116.8C380.1 116.5 379.7 116.1 379.4 115.7C379.1 115.2 379 114.7 379 114.1C379 113.5 379.1 112.9 379.4 112.5C379.7 112 380 111.6 380.4 111.4C381.1 111 381.9 110.8 382.8 111.2C383.1 111.3 383.5 111.5 383.7 111.7C384 111.9 384.2 112.2 384.4 112.4L384.6 112.7L386 111L385.9 110.8C385.5 110.1 384.9 109.6 384.1 109.2C383.3 108.8 382.5 108.6 381.6 108.6C380.6 108.6 379.7 108.8 379 109.3C378.2 109.8 377.6 110.4 377.2 111.3C376.8 112.1 376.5 113.1 376.5 114.1C376.5 115.1 376.7 116 377.2 116.9C377.6 117.7 378.3 118.4 379 118.9C379.8 119.4 380.6 119.6 381.6 119.6C382.4 119.6 383.3 119.4 384.1 119C384.9 118.6 385.5 118.1 385.9 117.5L386 117.3L384.6 115.6V115.8Z" fill="#063855"/>
<path d="M369.8 109.1C369.3 108.8 368.6 108.6 367.8 108.6C367.2 108.6 366.7 108.7 366.1 109C365.6 109.2 365.1 109.5 364.8 109.9V108.8H362.3V119.3H364.8V113C364.8 112.7 364.9 112.4 365 112.2C365.1 111.9 365.3 111.7 365.5 111.5C365.7 111.3 366 111.2 366.2 111C366.5 110.9 366.8 110.8 367.2 110.8C367.6 110.8 368 110.8 368.2 111C368.5 111.1 368.7 111.4 368.8 111.7C368.9 112 369 112.5 369 113V119.2H371.5V113C371.5 112 371.4 111.2 371.1 110.6C370.8 110 370.4 109.5 369.8 109.1Z" fill="#063855"/>
<path d="M155.7 56.5001C155.4 55.3001 155.1 54.1001 154.2 53.2001C154.1 53.1001 153.9 53.1001 153.8 53.0001L153.6 52.9001C153 52.7001 152.4 52.6001 151.8 52.5001C149.5 52.3001 145.3 53.1001 143.3 52.7001C142.9 52.6001 142.6 52.5001 142.2 52.2001C141.8 51.8001 140.5 47.8001 140.1 46.9001C139.6 45.8001 136.4 40.3001 136.4 39.8001C136.3 38.1001 141.4 33.4001 142.5 31.5001C143.7 29.3001 142.3 27.9001 141 26.2001C138.3 22.7001 134.8 19.2001 131.3 16.4001C129.6 15.1001 125.1 11.5001 123.1 11.5001C120.6 11.5001 117 17.1001 114.9 18.6001C114.5 18.9001 114 18.9001 113.5 18.9001C111.8 18.1001 110.1 17.3001 108.4 16.6001C106.5 15.8001 103.5 15.2001 101.8 14.4001C100.3 13.7001 100.4 12.9001 100.3 11.5001C100.1 9.60006 100.4 4.40006 99.6 3.00006C98.5 1.10006 95.1 0.900056 93 0.600056C87.6 -0.0999437 78.7 5.62668e-05 73.4 1.50006C70.1 2.40006 70.5 4.20006 70.3 7.10006C70.2 8.50006 70.4 12.9001 69.7 13.8001C69.3 14.3001 64.8 15.6001 63.7 16.0001C61.4 16.9001 59.2 18.1001 56.9 19.1001C56.5 19.1001 56.2 19.1001 55.9 18.9001C54.9 18.3001 52.9 16.2001 51.9 15.3001C50.6 14.1001 49.5 12.1001 47.7 11.7001C46 11.3001 43.6 13.2001 42.2 14.2001C38.3 17.1001 34.1 21.1001 31 24.8001C29.7 26.4001 26.9 29.4001 27.9 31.5001C30 34.4001 32.9 36.7001 34.8 39.8001L27.5 54.6001C27.5 54.8001 36.7 65.7001 39.3 68.8001L39.9 69.6001L40.7 70.6001C42.9 60.4001 46.2 52.6001 50.1 46.5001C50.5 45.9001 50.9 45.3001 51.3 44.8001C53.2 42.1001 55.4 39.6001 57.8 37.3001C57.9 37.2001 57.9 37.2001 58 37.1001C58.4 36.7001 58.9 36.3001 59.4 35.9001C63.4 32.5001 67.5 30.3001 71.2 29.0001C75.8 27.4001 80.6 26.5001 85.4 26.5001C92.6 26.5001 99.9 28.3001 106.8 31.9001C128.5 43.2001 136.5 69.0001 125.9 93.3001C121.3 103.8 112.8 111.6 101.9 115.4C89.7 119.6 76.1 118.3 64.5 111.8C58 108.2 49.6 100.5 45.9 94.7001C45.8 95.7001 45.6 97.9001 45.3 100C43.8 107.7 39.4 117.7 35 122.2C35 122.2 37.6 125.9 40.8 128.5C44.5 131.5 48.9 134.6 53.1 136.8C54.1 137.3 56.1 138.3 57.2 138.5C58.1 138.7 59.2 138.6 59.9 137.9C61.5 136.4 64.8 130.6 66.3 130C67.2 129.6 71.1 131.1 72.3 131.4C73.7 131.7 79.6 132.5 80.2 133C80.6 133.3 80.9 134 81.1 134.5C81.9 136.7 82 141.1 82.9 143.1C83.3 143.8 83.9 144.5 84.6 144.8C87.1 145.9 98.2 144 101.2 143.3C102.5 143 103.8 142.6 105.1 142.2C107.8 141.3 111.5 140.5 111.5 137C111.5 135.2 109.9 128.7 110.4 127.6C110.8 126.7 114.9 124.9 116 124.2C117.3 123.4 121.5 120.1 122.4 119.9C122.9 119.8 123.3 119.9 123.8 120.1C125.1 120.7 127.1 122.3 128.5 123.2C129.8 124.1 131.5 125.8 133.2 125.5C134.3 125.3 136.3 123.1 137.2 122.3C141.4 118.1 146.2 111.7 148.7 106.3C149 105.6 149.4 104.4 149.2 103.7C148.8 102 143.7 98.6001 142.1 97.1001C141.3 96.4001 140.7 95.9001 141 94.7001C141.5 92.6001 142.7 90.2001 143.3 88.0001C143.7 86.7001 144.1 83.1001 144.6 82.3001C144.8 81.9001 145.3 81.7001 145.7 81.6001C147.9 80.9001 152.3 81.4001 154.5 80.5001C156.2 79.8001 156 79.0001 156.7 77.7001C156.6 76.1001 157.1 74.2001 157.1 72.6001C157.6 67.9001 156.9 61.0001 155.7 56.5001Z" fill="#063855"/>
<path d="M42.2998 83.4001C42.0998 82.4001 41.8998 81.4001 41.5998 80.6001C40.5998 77.9001 39.2998 75.5001 37.7998 73.3001C34.6998 68.9001 30.5998 65.6001 27.8998 62.2001C21.2998 53.7001 25.6998 45.0001 28.8998 42.3001C28.8998 42.3001 26.1998 42.0001 24.5998 41.8001L23.4998 41.6001C22.8998 41.8001 17.4998 43.9001 13.4998 47.2001C4.29984 55.0001 -2.90016 69.5001 1.09984 86.8001C1.69984 89.4001 5.79984 107.1 25.6998 114.7C24.8998 113.8 24.0998 112.8 23.2998 111.7C24.1998 112.8 25.0998 113.9 25.6998 114.7L29.0998 115.2C18.7998 106.3 12.1998 90.8001 10.8998 82.2001C10.8998 82.5001 10.8998 82.8001 10.9998 83.2001C10.5998 79.0001 10.5998 74.7001 11.4998 70.6001C11.3998 72.6001 11.3998 74.7001 11.4998 76.7001C12.3998 88.2001 16.7998 98.7001 24.6998 107.2C26.9998 109.7 30.7998 114.3 33.7998 116.8C33.7998 116.8 34.3998 116.8 34.8998 116.8C34.8998 116.8 36.7998 112.7 39.7998 105C42.3998 98.0001 43.1998 89.8001 42.2998 83.4001Z" fill="#063855"/>
<path d="M92.1998 82.6L93.2998 82.4L89.4998 76L118.9 83.5C127.7 56 102.1 30 74.4998 39.8C62.7998 43.9 53.7998 54.9 52.1998 67.2H65.2998H68.0998H68.4998C68.4998 67.2 72.5998 50.1 91.7998 54.6C91.7998 54.6 99.7998 56.5 102.3 65.4L75.1998 65L77.3998 69H46.7998L92.1998 82.6Z" fill="#063855"/>
<path d="M100 88.4L98.3 86.2L96.3 87.6C90.5 91.3 84.7 90.9 82 90.3C81.8 90.2 81.5 90.2 81.3 90.1C81.2 90.1 81 90 80.9 90C78.7 89.4 76.5 88.3 74.7 86.9C70.3 83.2 68.7 77.9 68.7 77.9L64.8 76.8L52 73.4C52.4 100.6 84.2 115.9 105.9 100.4L106 100.3C106 100.3 106.1 100.3 106.1 100.2L107.5 98.1L100 88.4Z" fill="#063855"/>
</g>
<defs>
<clipPath id="clip0_3782_254">
<rect width="517.8" height="145.1" fill="white"/>
</clipPath>
</defs>
</svg>
