<svg width="661" height="135" viewBox="0 0 661 135" fill="none" xmlns="http://www.w3.org/2000/svg">
<g clip-path="url(#clip0_3511_41)">
<path d="M228.6 22.8H192.9C179.7 22.8 171.9 31.3 171.9 45.5V88.9C171.9 96.4 174.9 109 195.2 109L257.3 108.9V92.7H189.2V79.5H257.3C257.3 75.9 257.4 64.4 257.4 53.3V48.1C257.4 45.2 257.5 36.4 251.3 30.1C246.5 25.3 238.8 22.8 228.6 22.8ZM240.6 53.3L240.4 64.2L189.2 64V49.3C189.2 43.2 194.1 38.3 200.2 38.3L226.6 38.1C239.9 38.1 240.5 46.9 240.5 48.7V53.3H240.6Z" fill="black"/>
<path d="M268.7 22.8L296.9 108.9H318.6L290.3 22.8H268.7Z" fill="black"/>
<path d="M318.6 108.8H340.2L368.4 22.7H346.8L318.6 108.8Z" fill="black"/>
<path d="M435.9 22.8H400.2C387 22.8 379.2 31.3 379.2 45.5V88.9C379.2 96.4 382.2 109 402.5 109L464.6 108.9V92.7H396.5V79.5H464.6C464.6 75.9 464.7 64.4 464.7 53.3V48.1C464.7 45.2 464.8 36.4 458.6 30.1C453.7 25.3 446.1 22.8 435.9 22.8ZM447.8 53.3L447.6 64.2L396.5 64V49.3C396.5 43.2 401.4 38.3 407.5 38.3L433.9 38.1C447.2 38.1 447.8 46.9 447.8 48.7V53.3Z" fill="black"/>
<path d="M580.9 22.5V38.7H636.6C641.1 38.7 644.8 42.4 644.8 47V52.2H605.7C595.5 52.2 587.8 54.7 582.9 59.6C576.5 66 576.6 74.9 576.6 77.8V78.2L576.4 83.5C576.1 93.1 579.5 98.7 582.4 101.8C587.3 106.9 595.1 109.5 605.5 109.5H641.7C652.1 109.5 660.5 101 660.5 90.6V41.1C660.5 30.8 652.2 22.5 641.9 22.5H580.9ZM644.9 93.8L607.4 94C602.1 94 598.3 92.6 595.9 89.7C593.6 87 593.5 84 593.7 83L593.8 78.1C593.8 76.4 594.5 67.5 607.7 67.5L644.8 67.7V93.8H644.9Z" fill="black"/>
<path d="M564.3 22.8H543.8L522.8 51.2L501.7 22.8H481.1L512.5 65.1L479.6 109.3H500.2L522.8 78.8L545.3 109.3H565.8L533 65.1L564.3 22.8Z" fill="black"/>
<path d="M33.9 0L131.1 103.2V135H99.2L0 27.7V0H33.9ZM97 0L75 23.5L105.2 55.7L130.9 27.8V0.1L97 0ZM0 103.2V135H31.9L55.8 109.1L25.4 76.2L0 103.2Z" fill="black"/>
</g>
<defs>
<clipPath id="clip0_3511_41">
<rect width="660.7" height="135" fill="white"/>
</clipPath>
</defs>
</svg>
