<svg width="812" height="190" viewBox="0 0 812 190" fill="none" xmlns="http://www.w3.org/2000/svg">
<g clip-path="url(#clip0_3782_206)">
<path d="M266.9 51.7C266.9 41.9 267 31.6 267.3 25.3H267.2C264.4 35.8 259 52.6 252.3 73.5H240.1C234.9 55.1 228.9 36.1 225.8 25.3H225.7C226.1 31.9 226.6 43 226.6 52.7V73.5H214.1V16.5H234.1C239.8 34.2 245.1 49.7 246.8 57.5H246.9C249.3 48.5 254.5 33.5 260 16.5H280.1V73.6H266.8V51.7H266.9Z" fill="#0C2A6D"/>
<path d="M308.3 16.5V48.8C308.3 60.9 314.7 64 321.7 64C329.2 64 334.2 60.8 334.2 48.8V16.5H348V49.2C348 66.5 338.3 74.8 321.3 74.8C304.9 74.8 294.5 67.3 294.5 49.5V16.5H308.3Z" fill="#0C2A6D"/>
<path d="M362.3 16.5H376.1V62.5H408L406.2 73.6H362.2V16.5H362.3Z" fill="#0C2A6D"/>
<path d="M419.8 27.5H399.7V16.5H453.6V27.5H433.6V73.5H419.7V27.5H419.8Z" fill="#0C2A6D"/>
<path d="M476.4 16.5V73.6H462.6V16.5H476.4Z" fill="#0C2A6D"/>
<path d="M491.4 16.5H538.4V27.5H505.3V40.5H536.2V51.6H505.3V73.6H491.5V16.5H491.4Z" fill="#0C2A6D"/>
<path d="M607.3 44.7999C607.3 60.5999 596.8 74.6999 576 74.6999C556.7 74.6999 545.6 61.5 545.6 44.7999C545.6 29.0999 557.3 15.2 576.6 15.2C596.6 15.3 607.3 29.2999 607.3 44.7999ZM560.2 44.7C560.2 55.5 565.7 63.9 576.8 63.9C588.3 63.9 592.7 54.2 592.7 44.9C592.7 34.8 587.8 26 576.2 26C565.2 26.1 560.2 35.1 560.2 44.7Z" fill="#0C2A6D"/>
<path d="M632.5 51.6V73.6H618.8V16.5H649.9C663.1 16.5 670.6 23 670.6 32.8C670.6 40.2 666.3 44.5 660.7 46.3C663 47.2 669.2 49.5 669.2 59.7V62.5C669.2 66.4 669.1 70.8 669.9 73.5H655.7C654.7 71 654.6 67.6 654.6 61.6V59.7C654.6 53.9 652.5 51.5 644.2 51.5H632.5V51.6ZM632.5 41.2H646.8C653.5 41.2 656.4 38.8 656.4 34C656.4 29.5 653.4 26.9 646.9 26.9H632.5V41.2Z" fill="#0C2A6D"/>
<path d="M734.6 51.7C734.6 41.9 734.7 31.6 735 25.3H734.9C732.1 35.8 726.7 52.6 720 73.5H707.8C702.6 55.1 696.6 36.1 693.5 25.3H693.4C693.8 31.9 694.3 43 694.3 52.7V73.5H681.8V16.5H701.8C707.5 34.2 712.8 49.7 714.5 57.5H714.6C717 48.5 722.2 33.5 727.7 16.5H747.8V73.6H734.5V51.7H734.6Z" fill="#0C2A6D"/>
<path d="M770.9 56.4999C772.5 61.3999 776.5 64.6999 785.9 64.6999C794.8 64.6999 797.3 61.9999 797.3 58.2999C797.3 54.3999 794.7 52.1999 782.6 50.0999C762.8 46.6999 759.2 40.2999 759.2 32.5999C759.2 21.1999 770.2 15.3999 783.7 15.3999C803.3 15.3999 808.6 25.4999 809.2 32.0999H795.3C794.5 29.2999 792.6 25.4999 783.2 25.4999C776.6 25.4999 773.3 27.5999 773.3 31.2999C773.3 34.5999 775.6 36.2999 786.4 38.1999C808.1 42.0999 811.5 48.5999 811.5 56.8999C811.5 66.7999 803.7 74.7999 784.6 74.7999C766.8 74.7999 758.7 66.7999 757 56.5999H770.9V56.4999Z" fill="#0C2A6D"/>
<path d="M219.4 125.6L213.8 138.7H207.4L226 95.5H233.4L252.7 138.6H246.1L240.3 125.5H219.4V125.6ZM238.3 120.4C233 108.5 230.6 102.9 229.6 100H229.5C228.6 102.8 225.7 110.2 221.3 120.4H238.3Z" fill="#0C2A6D"/>
<path d="M259.7 95.5H277.4C291.3 95.5 299.4 104.6 299.4 116.3C299.4 130.1 289.7 138.5 277.3 138.5H259.7V95.5ZM265.8 133.6H276.1C287.5 133.6 293 126.4 293 116.6C293 106.6 286.6 100.6 276.6 100.6H265.9V133.6H265.8Z" fill="#0C2A6D"/>
<path d="M322 138.6L303.2 95.5H309.9L319.7 118.5C323.3 127 324.8 130.9 325.6 133.3H325.7C326.4 131.2 328.3 126.6 331.2 119.5L341.6 95.5H348.1L329 138.6H322Z" fill="#0C2A6D"/>
<path d="M356.8 125.6L351.2 138.7H344.8L363.3 95.6H370.7L390 138.7H383.4L377.6 125.6H356.8ZM375.6 120.4C370.3 108.5 367.9 102.9 366.9 100H366.8C365.9 102.8 363 110.2 358.6 120.4H375.6Z" fill="#0C2A6D"/>
<path d="M397.1 138.6V95.5H404.4C414.1 109 427.9 126.7 430.4 131.1H430.5C430.1 125.5 430.2 118.7 430.2 111.7V95.5H435.9V138.6H429C422.6 130 405.7 106.8 402.6 101.8H402.5C402.8 107.3 402.8 113.5 402.8 121.1V138.7H397.1V138.6Z" fill="#0C2A6D"/>
<path d="M488 126C485.5 133.4 480.1 139.5 467.9 139.5C453.6 139.5 445.8 129.5 445.8 117.1C445.8 104.8 454.4 94.6 468.2 94.6C480.6 94.6 486.5 101.3 488.2 108.4H481.9C480 103.9 476.6 99.7 468.1 99.7C458.2 99.7 452.2 107 452.2 116.9C452.2 126.7 458.1 134.4 468.1 134.4C476.2 134.4 479.5 130.9 481.8 125.9H488V126Z" fill="#0C2A6D"/>
<path d="M528.8 118.6H503V133.5H531.5L530.7 138.6H496.9V95.5H530.2V100.6H503V113.3H528.8V118.6Z" fill="#0C2A6D"/>
<path d="M540.4 95.5H558.1C572 95.5 580.1 104.6 580.1 116.3C580.1 130.1 570.4 138.5 558 138.5H540.4V95.5ZM546.5 133.6H556.8C568.2 133.6 573.7 126.4 573.7 116.6C573.7 106.6 567.3 100.6 557.3 100.6H546.6V133.6H546.5Z" fill="#0C2A6D"/>
<path d="M74.0001 6.1L65.6001 6.2L73.9001 6L74.0001 6.1Z" fill="#0C2A6D"/>
<path d="M126 124.1L41.1 39.3L22.5 57.4V189.1L0 189.2V47L41.3 6.40002L126.5 91.7L149.8 68.9V100.8L126 124.1Z" fill="#0C2A6D"/>
<path d="M164.3 0.2L125.9 38.5L84.2001 0L75.3001 0.1L66.9001 0.2L51.4001 0.4L119.2 63L126.2 70L161.3 35.7L161.4 128.9L136.2 153.9L44.7001 61.9L34.1001 72.4V170.3V189.2H56.1001V180.6L56.2001 106.1L135.9 185.8L184.1 138.2V0.1L164.3 0.2ZM64.4001 2.9L72.7001 2.7L72.8001 2.8L64.4001 2.9Z" fill="#0C2A6D"/>
</g>
<defs>
<clipPath id="clip0_3782_206">
<rect width="811.6" height="189.2" fill="white"/>
</clipPath>
</defs>
</svg>
