<svg width="450" height="108" viewBox="0 0 450 108" fill="none" xmlns="http://www.w3.org/2000/svg">
<g clip-path="url(#clip0_3782_237)">
<path d="M110.129 26.7428H95.6206V106.629H110.129V26.7428Z" fill="#5E2329"/>
<path d="M123.839 33.6C118.355 39.0857 115.613 45.8285 115.613 53.6V106.629H130.122V53.6C130.122 49.7143 131.493 46.4 134.121 43.7714C136.862 41.0285 140.175 39.6571 144.06 39.6571H152.514V25.1428H144.06C136.291 25.1428 129.437 28 123.839 33.6Z" fill="#5E2329"/>
<path d="M183.359 66.4C183.359 65.7143 183.587 65.1429 183.93 64.4572L210.548 26.7429H192.841L172.049 56C171.706 56.4572 171.363 57.0286 171.02 57.6V1.94287H156.512V106.629H171.135V75.4286C171.477 76 171.706 76.4572 172.163 76.9143L193.183 106.629H211.005L184.158 68.6857C183.587 68 183.359 67.2 183.359 66.4Z" fill="#5E2329"/>
<path d="M253.047 25.1428C241.622 25.1428 231.912 29.2571 223.915 37.2571C215.918 45.2571 211.919 55.0857 211.919 66.4C211.919 77.7143 215.918 87.5428 223.915 95.5428C231.912 103.657 241.622 107.771 253.047 107.771C264.585 107.771 274.067 103.771 282.293 95.6571C290.29 87.6571 294.288 77.8285 294.288 66.5143C294.288 55.2 290.29 45.3714 282.293 37.3714C274.067 29.1428 264.471 25.1428 253.047 25.1428ZM253.047 93.1428C245.507 93.1428 239.338 90.6285 234.082 85.3714C228.827 80 226.314 73.8285 226.314 66.5143C226.314 59.0857 228.827 52.9143 234.082 47.5428C239.338 42.2857 245.507 39.7714 253.047 39.7714C260.701 39.7714 266.87 42.2857 272.011 47.5428C277.38 52.9143 279.894 59.0857 279.894 66.5143C279.894 73.9428 277.266 80.1142 272.011 85.3714C266.87 90.6285 260.701 93.1428 253.047 93.1428Z" fill="#5E2329"/>
<path d="M330.959 25.1428C321.934 25.1428 314.166 28.4571 307.882 34.7428C301.599 40.9143 298.4 48.5714 298.4 57.6V106.514H312.795V57.7143C312.795 52.6857 314.509 48.4571 318.164 45.0285C321.706 41.4857 325.933 39.6571 330.959 39.6571C335.986 39.6571 340.099 41.3714 343.64 45.0285C347.296 48.6857 349.01 52.6857 349.01 57.7143V106.629H363.404V57.7143C363.404 48.9143 360.205 41.1428 353.808 34.8571C347.41 28.4571 339.756 25.1428 330.959 25.1428Z" fill="#5E2329"/>
<path d="M438.005 37.3715C429.779 29.1429 420.297 25.2572 408.759 25.2572C397.334 25.2572 387.624 29.3715 379.627 37.3715C371.63 45.3715 367.631 55.2001 367.631 66.5143C367.631 77.8286 371.63 87.6572 379.627 95.6572C387.624 103.771 397.334 107.886 408.759 107.886C419.04 107.886 427.951 104.571 435.491 97.9429V106.857H450V66.4001C450 54.9715 446.002 45.1429 438.005 37.3715ZM408.759 93.1429C401.219 93.1429 395.05 90.6286 389.794 85.3715C384.539 80.0001 382.026 73.8286 382.026 66.5143C382.026 59.0858 384.539 52.9143 389.794 47.5429C395.05 42.2858 401.219 39.7715 408.759 39.7715C416.299 39.7715 422.353 42.2858 427.609 47.5429C432.978 52.9143 435.491 59.0858 435.491 66.5143C435.491 73.9429 432.864 80.1144 427.494 85.4858C422.582 90.6286 416.413 93.1429 408.759 93.1429Z" fill="#5E2329"/>
<path d="M102.932 19.0857C107.664 19.0857 111.501 15.2482 111.501 10.5143C111.501 5.78043 107.664 1.94287 102.932 1.94287C98.2004 1.94287 94.3643 5.78043 94.3643 10.5143C94.3643 15.2482 98.2004 19.0857 102.932 19.0857Z" fill="#5E2329"/>
<path d="M81.1117 24.4572C79.5123 22.8572 77.3417 21.9429 75.0569 21.9429C72.772 21.9429 70.6014 22.8572 69.002 24.4572L2.51309 90.9714C-0.799936 94.2857 -0.799936 99.7714 2.51309 103.086C4.11248 104.686 6.28308 105.6 8.56792 105.6C10.8528 105.6 13.0234 104.686 14.6228 103.086L81.1117 36.6857C84.4247 33.2572 84.4247 27.7714 81.1117 24.4572Z" fill="#5E2329"/>
<path d="M20.7919 54.2858C22.3913 55.8858 24.5619 56.8 26.8467 56.8C29.1316 56.8 31.3022 55.8858 32.9016 54.2858L50.7234 36.4572C54.0364 33.1429 54.0364 27.6572 50.7234 24.3429C49.124 22.7429 46.9534 21.8286 44.6685 21.8286C42.3837 21.8286 40.2131 22.7429 38.6137 24.3429L20.7919 42.1715C17.4789 45.4858 17.4789 50.9715 20.7919 54.2858Z" fill="#5E2329"/>
<path d="M59.977 75.3143C58.3776 73.7143 56.207 72.8 53.9222 72.8C51.6373 72.8 49.4667 73.7143 47.8673 75.3143L30.0456 93.1429C28.4462 94.7429 27.5322 96.9143 27.5322 99.2001C27.5322 101.486 28.4462 103.657 30.0456 105.257C31.6449 106.857 33.8155 107.771 36.1004 107.771C38.3852 107.771 40.5558 106.857 42.1552 105.257L59.977 87.4286C63.4043 84.1143 63.4043 78.7429 59.977 75.3143Z" fill="#5E2329"/>
<path d="M70.4873 84.9143C68.2024 84.9143 66.0318 85.8286 64.4324 87.4286L58.4918 93.3714C56.8925 94.9714 55.9785 97.1429 55.9785 99.4286C55.9785 101.714 56.8925 103.886 58.4918 105.486C60.0912 107.086 62.2618 108 64.5467 108C66.8315 108 69.0021 107.086 70.6015 105.486L76.5421 99.5429C78.1415 97.9429 79.0554 95.7714 79.0554 93.4857C79.0554 91.2 78.1415 89.0286 76.5421 87.4286C74.9427 85.8286 72.7721 84.9143 70.4873 84.9143Z" fill="#5E2329"/>
<path d="M9.7105 44.9143C11.9953 44.9143 14.1659 44 15.7653 42.4L21.7059 36.5714C23.3053 34.9714 24.2193 32.8 24.2193 30.5143C24.2193 28.2286 23.3053 26.0572 21.7059 24.4572C20.1065 22.8572 17.9359 21.9429 15.6511 21.9429C13.3663 21.9429 11.1957 22.8572 9.59626 24.4572L3.65567 30.4C0.342643 33.7143 0.342643 39.2 3.65567 42.5143C5.25506 44.1143 7.42566 44.9143 9.7105 44.9143Z" fill="#5E2329"/>
<path d="M312.909 68.1143H298.515V70.9714H312.909V68.1143Z" fill="#5E2329"/>
<path d="M102.932 21.0286C108.737 21.0286 113.442 16.3212 113.442 10.5143C113.442 4.70741 108.737 0 102.932 0C97.1275 0 92.4219 4.70741 92.4219 10.5143C92.4219 16.3212 97.1275 21.0286 102.932 21.0286Z" fill="#5E2329"/>
</g>
<defs>
<clipPath id="clip0_3782_237">
<rect width="450" height="108" fill="white"/>
</clipPath>
</defs>
</svg>
